<?xml version="1.0" standalone="no"?>
<!DOCTYPE svg PUBLIC "-//W3C//DTD SVG 1.1//EN" "http://www.w3.org/Graphics/SVG/1.1/DTD/svg11.dtd" >
<svg xmlns="http://www.w3.org/2000/svg">
<metadata>Generated by IcoMoon</metadata>
<defs>
<font id="icomoon" horiz-adv-x="1024">
<font-face units-per-em="1024" ascent="960" descent="-64" />
<missing-glyph horiz-adv-x="1024" />
<glyph unicode="&#x20;" horiz-adv-x="512" d="" />
<glyph unicode="&#xe900;" glyph-name="1" horiz-adv-x="1609" d="M709.714 16.001l-668.571 665.142c-30.857 34.285-30.857 85.715 0 116.571l78.857 78.858c30.857 30.857 82.285 30.857 116.572 0l531.428-528 528.001 528c34.285 30.857 85.713 30.857 116.571 0l78.855-78.858c30.852-30.856 30.852-82.286 0-116.571l-668.57-665.142c-30.858-30.858-82.286-30.858-113.143 0z" />
<glyph unicode="&#xe901;" glyph-name="2" d="M14.222 513.017c0 239.007 193.754 432.761 432.761 432.761s432.763-193.754 432.763-432.761c0-103.759-36.517-198.99-97.399-273.537l215.034-216.525c16.606-16.72 16.509-43.736-0.21-60.342-16.72-16.6-43.73-16.509-60.336 0.21l-214.682 216.166c-74.792-61.685-170.654-98.736-275.17-98.736-239.007 0-432.761 193.758-432.761 432.763zM693.35 268.049c0.051 0.051 0.097 0.097 0.148 0.148 62.373 62.805 100.915 149.311 100.915 244.82 0 191.879-155.551 347.428-347.43 347.428s-347.428-155.549-347.428-347.428c0-191.879 155.549-347.43 347.428-347.43 96.296 0 183.442 39.179 246.367 102.463z" />
<glyph unicode="&#xe902;" glyph-name="3" d="M162.346 240.373c0.016 0.009 0.032 0.014-12.346 25.626l12.378-25.611c14.144 6.838 20.068 23.845 13.232 37.99-6.81 14.089-23.713 20.022-37.825 13.309l-0.443-0.196c-0.491-0.213-1.347-0.572-2.514-1.010-2.357-0.887-5.845-2.054-10.042-3.032-8.752-2.042-18.637-2.819-27.457-0.466-7.781 2.076-16.421 6.946-23.825 20.028-7.945 14.037-15.059 38.719-15.059 80.99 0 42.291 7.122 66.785 15.002 80.575 7.305 12.783 15.781 17.411 23.452 19.328 8.766 2.193 18.649 1.266 27.452-0.936 4.213-1.055 7.718-2.284 10.092-3.217 1.175-0.461 2.039-0.836 2.537-1.061l0.455-0.208c14.021-6.906 31.007-1.203 38.007 12.797 7.025 14.052 1.33 31.135-12.721 38.161l-12.721-25.441c12.721 25.441 12.705 25.449 12.689 25.458l-0.034 0.017-0.077 0.037-0.189 0.094-0.513 0.247c-0.401 0.191-0.921 0.432-1.552 0.717-1.26 0.566-2.974 1.303-5.080 2.13-4.189 1.647-10.059 3.698-17.096 5.458-13.696 3.422-33.813 6.244-55.047 0.936-22.329-5.581-43.853-19.703-59.048-46.293-14.62-25.586-22.498-61.093-22.498-108.8 0-47.73 7.886-83.3 22.44-109.013 15.096-26.67 36.456-41.048 58.675-46.973 21.179-5.646 41.295-3.174 55.043 0.034 7.054 1.647 12.941 3.607 17.145 5.188 2.114 0.794 3.836 1.508 5.103 2.057 0.634 0.273 1.158 0.509 1.562 0.694l0.518 0.242 0.304 0.145zM121.556 206c0-15.71 12.735-28.444 28.444-28.444h120c15.71 0 28.445 12.735 28.445 28.444v361.998c0 15.71-12.735 28.444-28.445 28.444h-120c-15.71 0-28.444-12.735-28.444-28.444v-361.998zM178.445 234.445v305.109h63.111v-305.109h-63.111zM874.001 177.556c15.707 0 28.444 12.735 28.444 28.444v361.998c0 15.71-12.737 28.444-28.444 28.444-15.71 0-28.444-12.735-28.444-28.444v-361.998c0-15.71 12.735-28.444 28.444-28.444zM873.998 265.998l-12.376-25.611c-14.145 6.838-20.068 23.845-13.232 37.99 6.81 14.089 23.714 20.022 37.825 13.309l0.441-0.196c0.492-0.213 1.348-0.572 2.514-1.010 2.358-0.887 5.845-2.054 10.044-3.032 8.752-2.042 18.634-2.819 27.457-0.466 7.78 2.076 16.421 6.946 23.825 20.028 7.945 14.037 15.058 38.719 15.058 80.99 0 42.291-7.122 66.785-15.002 80.575-7.305 12.783-15.781 17.411-23.452 19.328-8.767 2.193-18.648 1.266-27.452-0.936-4.215-1.055-7.72-2.284-10.092-3.217-1.175-0.461-2.039-0.836-2.537-1.061l-0.455-0.208c-14.020-6.906-31.007-1.203-38.007 12.797-7.026 14.052-1.328 31.135 12.72 38.161l12.72-25.441c-12.72 25.441-12.703 25.449-12.689 25.458l0.034 0.017 0.077 0.037 0.191 0.094 0.512 0.247c0.401 0.191 0.922 0.432 1.553 0.717 1.26 0.566 2.972 1.303 5.080 2.13 4.187 1.647 10.058 3.698 17.095 5.458 13.696 3.422 33.812 6.244 55.049 0.936 22.329-5.581 43.853-19.703 59.048-46.293 14.618-25.586 22.497-61.093 22.497-108.8 0-47.73-7.885-83.3-22.44-109.013-15.095-26.67-36.457-41.048-58.675-46.973-21.18-5.646-41.296-3.174-55.043 0.034-7.054 1.647-12.939 3.607-17.146 5.188-2.113 0.794-3.834 1.508-5.103 2.057-0.634 0.273-1.158 0.509-1.562 0.694l-0.518 0.242-0.191 0.091-0.080 0.037-0.034 0.017c-0.017 0.009-0.031 0.014 12.345 25.626zM886.565 482.48c0.051 0.026 0.102 0.051 0.156 0.077l-12.217 24.428c12.214-24.428 12.2-24.437 12.188-24.442l-0.028-0.014-0.1-0.048zM725.555 206c0-15.71 12.735-28.444 28.444-28.444h120.001c15.707 0 28.444 12.735 28.444 28.444v361.998c0 15.71-12.737 28.444-28.444 28.444h-120.001c-15.71 0-28.444-12.735-28.444-28.444v-361.998zM782.444 234.445v305.109h63.113v-305.109h-63.113zM603.557 26.001c0-15.71 12.735-28.444 28.444-28.444h121.998c81.983 0 148.446 66.46 148.446 148.443v60.001c0 15.71-12.737 28.444-28.444 28.444-15.71 0-28.444-12.735-28.444-28.444v-60.001c0-50.563-40.991-91.554-91.557-91.554h-121.998c-15.71 0-28.444-12.737-28.444-28.444zM150 539.557c15.709 0 28.444 12.735 28.444 28.444 0 183.111 150.442 333.554 333.555 333.554 183.111 0 333.557-150.443 333.557-333.554 0-15.71 12.735-28.444 28.444-28.444 15.707 0 28.444 12.735 28.444 28.444 0 214.53-175.915 390.443-390.446 390.443s-390.444-175.913-390.444-390.443c0-15.71 12.735-28.444 28.444-28.444zM423.555 26.001c0-48.848 39.6-88.445 88.445-88.445h60.001c48.845 0 88.445 39.598 88.445 88.445 0 48.845-39.6 88.442-88.445 88.442h-60.001c-48.845 0-88.445-39.598-88.445-88.442zM512-5.555c-17.428 0-31.556 14.128-31.556 31.556 0 17.425 14.128 31.553 31.556 31.553h60.001c17.425 0 31.556-14.128 31.556-31.553 0-17.428-14.131-31.556-31.556-31.556h-60.001z" />
<glyph unicode="&#xe903;" glyph-name="4" d="M981.331 406.214h-938.665c-23.552 0-42.667 19.114-42.667 42.666s19.115 42.667 42.667 42.667h938.665c23.552 0 42.669-19.115 42.669-42.667s-19.117-42.666-42.669-42.666zM981.331 733.339h-938.665c-23.552 0-42.667 19.114-42.667 42.666s19.115 42.667 42.667 42.667h938.665c23.552 0 42.669-19.115 42.669-42.667s-19.117-42.666-42.669-42.666zM981.331 79.117h-938.665c-23.552 0-42.667 19.117-42.667 42.669s19.115 42.669 42.667 42.669h938.665c23.552 0 42.669-19.117 42.669-42.669s-19.117-42.669-42.669-42.669z" />
<glyph unicode="&#xe904;" glyph-name="5" d="M87.45 633.6h644.264v76.8h-644.264v-76.8zM31.019 671.977l256.973-256.971 54.306 54.304-202.666 202.666 202.666 202.666-54.306 54.306-256.973-256.972zM893.875 254.336h-644.267v-76.8h644.267v76.8zM950.308 215.962l-256.973 256.971-54.308-54.306 202.665-202.665-202.665-202.67 54.308-54.303 256.973 256.973z" />
<glyph unicode="&#xe905;" glyph-name="6" horiz-adv-x="1152" d="M544.652-48.934c-47.901 41.914-94.145 81.242-137.992 118.528-96.406 81.99-181.219 154.125-246.559 222.182-96.422 100.434-160.664 201.828-160.664 328.43 0 177.681 126.094 336.582 313.508 336.582 121.413 0 200.022-70.749 245.867-135.449 6.36-8.975 12.165-17.927 17.448-26.686 5.283 8.759 11.088 17.711 17.448 26.686 45.844 64.7 124.455 135.449 245.869 135.449 187.411 0 313.504-158.9 313.504-336.582 0-126.602-64.243-227.996-160.666-328.43-65.338-68.058-150.15-140.192-246.554-222.176-43.846-37.293-90.093-76.621-137.994-118.534-18.097-15.84-45.119-15.84-63.217 0zM529.98 665.657c-0.003 0.012-0.006 0.022-0.010 0.034l-0.019 0.061-0.384 1.294c-0.381 1.256-1.012 3.272-1.909 5.94-1.798 5.346-4.646 13.249-8.669 22.85-8.104 19.34-20.669 44.828-38.506 70.001-35.783 50.5-88.831 94.951-167.537 94.951-124.349 0-217.508-105.283-217.508-240.582 0-89.823 44.008-168.296 133.916-261.945 61.896-64.469 140.745-131.516 234.707-211.407 35.299-30.016 72.732-61.843 112.2-96.032 39.468 34.189 76.898 66.016 112.2 96.032 93.965 79.891 172.813 146.938 234.707 211.407 89.907 93.649 133.914 172.122 133.914 261.945 0 135.299-93.158 240.582-217.504 240.582-78.707 0-131.757-44.451-167.539-94.951-17.837-25.173-30.4-50.66-38.507-70.001-4.023-9.601-6.871-17.504-8.669-22.85-0.898-2.668-1.528-4.685-1.909-5.94l-0.412-1.389c0.004 0.017 0.010 0.034-46.281 12.731z" />
<glyph unicode="&#xe906;" glyph-name="7" d="M77.252-51.697c7.282-8.084 17.653-12.703 28.536-12.703h812.423c10.885 0 21.253 4.618 28.539 12.703 7.281 8.090 10.788 18.883 9.651 29.706l-76.611 729.567c-2.053 19.548-18.534 34.39-38.19 34.39h-659.201c-19.655 0-36.137-14.842-38.19-34.39l-76.612-729.567c-1.137-10.824 2.372-21.617 9.654-29.706zM148.431 12.401l68.547 652.765h590.041l68.547-652.765h-727.135zM356.397 569.050c21.208 0 38.4 17.192 38.4 38.4v158.94c0 64.731 52.473 117.204 117.203 117.204 64.732 0 117.207-52.474 117.207-117.204v-158.94c0-21.208 17.188-38.4 38.4-38.4 21.207 0 38.4 17.192 38.4 38.4v158.94c0 107.146-86.861 194.004-194.007 194.004-107.145 0-194.003-86.859-194.003-194.004v-158.94c0-21.208 17.192-38.4 38.4-38.4z" />
<glyph unicode="&#xe907;" glyph-name="8" horiz-adv-x="652" d="M600.727 387.636l-423.272-425.45c-21.818-19.642-54.546-19.642-74.182 0l-50.181 50.176c-19.636 19.638-19.636 52.365 0 74.183l336 338.182-336 336c-19.636 21.818-19.636 54.545 0 74.181l50.181 50.182c19.637 19.636 52.364 19.636 74.182 0l423.272-425.455c19.637-19.637 19.637-52.364 0-72z" />
<glyph unicode="&#xe908;" glyph-name="9" d="M937.148 877.403c25.037-24.946 25.114-65.469 0.171-90.509l-765.103-768.001c-24.946-25.037-65.469-25.114-90.51-0.171s-25.118 65.468-0.171 90.51l765.1 768c24.943 25.041 65.468 25.117 90.513 0.171zM81.706 877.403c25.041 24.946 65.563 24.87 90.51-0.171l765.103-768c24.943-25.042 24.866-65.567-0.171-90.51-25.045-24.943-65.57-24.866-90.513 0.171l-765.1 768.001c-24.946 25.040-24.87 65.563 0.171 90.509z" />
<glyph unicode="&#xe90a;" glyph-name="11" horiz-adv-x="1103" d="M551.385 960l123.794-380.997h400.605l-324.096-235.47 123.794-380.996-324.096 235.468-324.096-235.468 123.794 380.996-324.096 235.47h400.604l123.794 380.997z" />
<glyph unicode="&#xe90b;" glyph-name="12" horiz-adv-x="1489" d="M-0.018 362.666h1148.713l-290.217-306.346 114.304-120.32 486.4 512-486.4 512-114.304-120.32 290.217-306.346h-1148.713v-170.667z" />
<glyph unicode="&#xe90c;" glyph-name="13" d="M960 446.396c0-231.228-172.8-420.702-393.6-446.396v346.837h105.6l16 122.035h-118.4v73.866c0 35.326 9.6 57.807 60.8 57.807h64v112.401c-32 3.212-60.8 3.212-92.8 3.212-92.8 0-156.8-57.807-156.8-160.573v-89.92h-105.6v-122.035h105.6v-343.629c-217.6 35.328-380.8 221.589-380.8 446.396 0 247.281 201.6 449.604 448 449.604s448-202.323 448-449.604z" />
<glyph unicode="&#xe90d;" glyph-name="14" d="M490.667 874.667c-247.38 0-448-200.62-448-448s200.62-448 448-448c247.381 0 448 200.619 448 448s-200.619 448-448 448zM720.986 538.579c0.226-4.97 0.333-9.973 0.333-14.999 0-153.438-116.796-330.381-330.402-330.398-65.573 0-126.595 19.213-177.993 52.169 9.082-1.067 18.34-1.613 27.703-1.613 54.407 0 104.475 18.551 144.235 49.702-50.838 0.943-93.695 34.509-108.483 80.657 7.087-1.365 14.368-2.099 21.822-2.099 10.605 0 20.86 1.434 30.625 4.092-53.13 10.641-93.153 57.596-93.153 113.822 0 0.525 0 0.998 0.017 1.489 15.645-8.7 33.548-13.931 52.588-14.528-31.185 20.809-51.677 56.371-51.677 96.654 0 21.28 5.757 41.213 15.732 58.362 57.26-70.262 142.853-116.48 239.348-121.327-1.997 8.503-3.029 17.378-3.029 26.477 0 64.102 52.011 116.112 116.13 116.112 33.408 0 63.578-14.122 84.753-36.698 26.462 5.215 51.294 14.893 73.745 28.193-8.678-27.108-27.089-49.84-51.063-64.225 23.484 2.818 45.884 9.047 66.675 18.288-15.522-23.293-35.247-43.75-57.907-60.13z" />
<glyph unicode="&#xe90e;" glyph-name="15" d="M512 936.727c-269.869 0-488.727-218.858-488.727-488.727 0-269.871 218.858-488.727 488.727-488.727 269.871 0 488.727 218.857 488.727 488.727s-218.857 488.727-488.727 488.727zM360.933 182.081h-126.134v379.453h126.134v-379.453zM297.876 613.346h-0.821c-42.325 0-69.701 29.133-69.701 65.558 0 37.227 28.216 65.558 71.362 65.558s69.701-28.331 70.522-65.558c0-36.406-27.376-65.558-71.362-65.558zM815.737 182.081h-126.115v202.994c0 51.014-18.269 85.816-63.898 85.816-34.839 0-55.594-23.464-64.717-46.127-3.342-8.113-4.143-19.433-4.143-30.771v-211.912h-126.116c0 0 1.661 343.867 0 379.472h126.116v-53.722c16.761 25.849 46.75 62.637 113.664 62.637 82.991 0 145.208-54.237 145.208-170.787v-217.6z" />
<glyph unicode="&#xe90f;" glyph-name="16" d="M512 896c-247.323 0-448-200.677-448-448 0-247.326 200.677-448 448-448 246.835 0 448 200.674 448 448 0 247.323-201.165 448-448 448zM807.91 689.492c53.453-65.111 85.521-148.199 86.494-238.092-12.634 2.428-138.97 28.181-266.274 12.147-2.914 6.319-5.346 13.12-8.26 19.921-7.774 18.466-16.521 37.414-25.267 55.394 140.911 57.335 205.052 139.94 213.308 150.63zM512 829.917c97.178 0 186.099-36.442 253.641-96.208-6.805-9.718-64.627-86.976-200.678-137.995-62.682 115.158-132.164 209.423-142.853 224 28.664 6.803 58.796 10.204 89.891 10.204zM349.225 793.961c10.203-13.605 78.231-108.356 141.881-221.084-178.811-47.621-336.729-46.648-353.735-46.648 24.781 118.56 104.954 217.198 211.854 267.732zM129.111 447.514c0 3.887 0 7.774 0 11.661 16.521-0.482 202.135-2.914 393.091 54.421 11.179-21.38 21.38-43.243 31.1-65.109-4.86-1.459-10.206-2.918-15.061-4.373-197.277-63.65-302.231-237.606-310.978-252.181-60.737 67.537-98.152 157.431-98.152 255.582zM512 65.109c-88.435 0-170.065 30.127-234.69 80.661 6.802 14.089 84.545 163.746 300.285 239.061 0.973 0.486 1.459 0.486 2.432 0.973 53.931-139.452 75.802-256.555 81.63-290.082-46.161-19.921-96.695-30.613-149.658-30.613zM725.308 130.705c-3.883 23.326-24.294 135.083-74.342 272.593 120.021 18.948 224.973-12.147 238.093-16.525-16.521-106.411-77.743-198.242-163.75-256.068z" />
<glyph unicode="&#xe910;" glyph-name="17" horiz-adv-x="768" d="M369.289 461.461c-1.465 0-2.442 0-3.908 0-2.443 0.481-5.862 0.481-8.793 0-141.659 4.327-248.635 113.938-248.635 249.029 0 137.495 113.816 249.51 253.52 249.51s253.521-112.015 253.521-249.51c-0.492-135.091-107.954-244.702-244.24-249.029-0.488 0-0.977 0-1.465 0zM361.473 887.887c-99.161 0-180.248-79.805-180.248-177.397 0-96.15 76.202-173.551 173.41-176.916 2.442 0.481 9.281 0.481 15.631 0 95.742 4.327 170.97 81.728 171.456 176.916 0 97.592-81.087 177.397-180.249 177.397zM369.778-64c-95.741 0-191.972 24.038-264.755 72.11-67.899 44.232-105.023 104.806-105.023 170.67s37.124 126.92 105.023 171.628c146.543 95.667 383.943 95.667 529.509 0 67.41-44.232 105.021-104.806 105.021-170.665 0-65.864-37.12-126.92-105.021-171.633-73.272-48.072-169.012-72.11-264.754-72.11zM145.566 289.833c-46.894-30.766-72.294-70.19-72.294-111.534 0-40.863 25.889-80.287 72.294-110.572 121.631-80.287 326.792-80.287 448.425 0 46.889 30.766 72.294 70.19 72.294 111.534 0 40.863-25.892 80.282-72.294 110.572-121.633 79.805-326.794 79.805-448.425 0z" />
<glyph unicode="&#xe911;" glyph-name="18" horiz-adv-x="8192" d="M7680 960c282.778 0 512-229.231 512-512v0c0-282.772-229.222-512-512-512h-7168c-282.77 0-512 229.233-512 512v0c0 282.77 229.23 512 512 512h7168z" />
<glyph unicode="&#xe912;" glyph-name="19" d="M448 896c0 35.346 28.654 64 64 64v0c35.346 0 64-28.654 64-64v-896c0-35.347-28.654-64-64-64v0c-35.346 0-64 28.653-64 64v896zM960 512c35.347 0 64-28.654 64-64v0c0-35.347-28.653-64-64-64h-896c-35.346 0-64 28.654-64 64v0c0 35.347 28.654 64 64 64h896z" />
<glyph unicode="&#xe913;" glyph-name="20" d="M502.474 93.752l-12.322-6.164-362.136 160.947v422.641l354-157.334c2.728-1.212 5.681-1.839 8.667-1.839s5.939 0.627 8.667 1.839l354 157.334v-180.506c0.056-5.622 2.324-10.996 6.318-14.952 3.999-3.956 9.39-6.176 15.017-6.176 5.622 0 11.013 2.22 15.012 6.176 3.994 3.956 6.262 9.33 6.318 14.952v213.334c0 4.126-1.198 8.163-3.446 11.623s-5.448 6.194-9.221 7.87l-383.998 170.666c-2.729 1.21-5.682 1.836-8.667 1.836s-5.938-0.626-8.667-1.836l-384-170.666c-3.77-1.677-6.973-4.411-9.221-7.87s-3.445-7.498-3.445-11.623v-469.334c0.001-4.127 1.198-8.161 3.446-11.622 2.248-3.456 5.451-6.19 9.221-7.864l384-170.665c2.875-1.285 5.998-1.91 9.145-1.843 3.146 0.072 6.239 0.835 9.055 2.243l21.333 10.665c2.524 1.244 4.777 2.975 6.625 5.089 1.853 2.115 3.267 4.577 4.163 7.245 0.896 2.662 1.26 5.478 1.065 8.284-0.2 2.806-0.947 5.545-2.202 8.059-1.26 2.514-3 4.756-5.13 6.595-2.125 1.843-4.593 3.241-7.265 4.122-2.668 0.886-5.489 1.229-8.292 1.019-2.804-0.21-5.539-0.978-8.047-2.248l0.008 0.005zM490.674 556.682l-150.924 67.082 330.269 146.782c0.205 0.094 0.399 0.211 0.589 0.328 0.154 0.095 0.307 0.19 0.471 0.272l151.076-67.142-331.48-147.322zM490.674 851.328l128.022-56.896-328.679-146.080c-0.847-0.411-1.665-0.879-2.448-1.4l-128.352 57.052 331.458 147.324zM725.335 469.331c-42.194 0-83.441-12.511-118.523-35.954-35.082-23.439-62.423-56.755-78.572-95.739s-20.373-81.879-12.14-123.259c8.228-41.385 28.549-79.396 58.383-109.23 29.834-29.839 67.845-50.156 109.23-58.388 41.38-8.228 84.275-4.004 123.259 12.14 38.984 16.148 72.3 43.494 95.739 78.577 23.444 35.082 35.958 76.329 35.958 118.518-0.067 56.561-22.559 110.787-62.556 150.784-39.992 39.992-94.218 62.489-150.779 62.553zM725.335 85.33c-33.751 0-66.749 10.010-94.817 28.764-28.063 18.755-49.94 45.409-62.858 76.59-12.918 31.186-16.297 65.5-9.713 98.606 6.589 33.106 22.84 63.519 46.71 87.388 23.869 23.864 54.277 40.12 87.383 46.705s67.42 3.205 98.606-9.713c31.186-12.918 57.841-34.79 76.595-62.858 18.749-28.063 28.759-61.061 28.759-94.817-0.051-45.245-18.048-88.622-50.043-120.617s-75.372-49.997-120.622-50.048zM703.99 222.172l91.581 91.581c4.019 3.927 9.421 6.108 15.032 6.077 5.617-0.031 10.993-2.278 14.961-6.246 3.973-3.973 6.216-9.349 6.252-14.961 0.031-5.617-2.15-11.018-6.077-15.032l-106.665-106.67c-1.981-1.976-4.332-3.548-6.922-4.623-2.586-1.070-5.361-1.623-8.161-1.623s-5.576 0.553-8.161 1.623c-2.591 1.075-4.941 2.647-6.922 4.623l-53.335 53.335c-2.017 1.976-3.625 4.326-4.726 6.927-1.101 2.596-1.679 5.386-1.695 8.207s0.527 5.622 1.597 8.228c1.075 2.611 2.652 4.982 4.649 6.979s4.367 3.579 6.979 4.649c2.611 1.070 5.407 1.618 8.228 1.597 2.821-0.015 5.617-0.589 8.212-1.695 2.596-1.101 4.951-2.708 6.922-4.726l38.252-38.252zM490.152 87.588l-5.198-11.699 5.522-2.452 5.405 2.703-5.728 11.448zM502.474 93.752l7.64-10.271-13.368 21.719 5.728-11.448zM128.016 248.535h-12.8v-8.32l7.602-3.374 5.198 11.694zM128.016 671.176l5.199 11.697-17.999 7.999v-19.697h12.8zM482.016 513.842v0zM499.35 513.842v0zM853.35 671.176h12.8v19.697l-17.997-7.999 5.197-11.697zM853.35 490.67h-12.8v-0.124l12.8 0.124zM859.668 475.718v0zM889.697 475.718v0zM896.015 490.67l12.8-0.124v0.124h-12.8zM896.015 704.004v0zM892.57 715.628v0zM883.348 723.498v0zM499.35 894.164l5.198 11.697-0.008 0.004-5.19-11.7zM482.016 894.164l-5.191 11.7-0.008-0.004 5.199-11.697zM98.016 723.498l-5.199 11.697-0.004-0.002 5.202-11.695zM88.795 715.628v0zM85.35 704.004v0zM85.35 234.67v0zM98.016 215.183v0zM482.016 44.518l5.207 11.689-0.009 0.005-5.198-11.694zM491.161 42.675v0zM500.216 44.918l5.716-11.453 0.008 0.005-5.724 11.448zM521.549 55.583l-5.658 11.479-0.067-0.031 5.724-11.448zM532.337 67.917v0zM533.402 76.201v0zM531.2 84.26v0zM526.070 90.854v0zM518.804 94.976v0zM510.513 95.995l-0.961 12.764h-0.001l0.962-12.764zM502.466 93.747l-7.64 10.271 13.429-21.688-5.789 11.418zM339.75 623.764l-5.198 11.697-26.317-11.696 26.317-11.697 5.199 11.697zM490.674 556.682l-5.199-11.697 5.198-2.311 5.199 2.311-5.198 11.697zM670.019 770.546l5.197-11.697 0.026 0.013-5.222 11.684zM670.607 770.874l-6.728 10.89-0.005-0.001 6.733-10.889zM671.078 771.146l5.197 11.697-5.519 2.453-5.402-2.701 5.724-11.449zM822.154 704.004l5.197-11.697 26.322 11.697-26.322 11.697-5.197-11.697zM618.696 794.432l5.197-11.697 26.322 11.697-26.322 11.697-5.197-11.697zM490.674 851.328l5.198 11.697-5.199 2.311-5.198-2.311 5.199-11.697zM290.016 648.352l-5.202 11.704-0.394-0.191 5.596-11.512zM287.568 646.952l-5.199-11.697 6.426-2.856 5.857 3.892-7.085 10.661zM159.216 704.004l-5.199 11.697-26.315-11.697 26.315-11.697 5.199 11.697zM725.335 469.331l0.015 12.8h-0.015v-12.8zM528.241 337.638v0zM516.101 214.38v0zM574.484 105.149v0zM683.715 46.761v0zM806.973 58.9v0zM902.712 137.477v0zM938.67 255.995h12.8v0.015l-12.8-0.015zM876.114 406.779v0zM630.518 114.094v0zM725.335 85.33v-12.8h0.015l-0.015 12.8zM567.66 190.684v0zM557.947 289.29v0zM692.040 423.383v0zM790.646 413.67v0zM867.241 350.812v0zM896 255.995v0zM845.957 135.378v0zM795.571 313.759h12.8v30.899l-21.847-21.847 9.047-9.052zM703.99 222.172l-9.052-9.047 9.052-9.052 9.052 9.052-9.052 9.047zM795.571 313.754h-12.8v-30.403l21.75 21.248-8.95 9.155zM810.604 319.831v0zM831.816 298.624v0zM825.738 283.592l9.052-9.052 0.102 0.102-9.155 8.95zM719.073 176.922v0zM688.906 176.922v0zM635.571 230.257l9.052 9.052-0.102 0.102-8.95-9.155zM629.151 245.391v0zM630.748 253.619v0zM642.376 265.247v0zM650.604 266.844v0zM658.816 265.149v0zM665.738 260.424l-9.155-8.945 0.102-0.108 9.052 9.052zM495.88 76.14l12.322 6.17-11.456 22.892-12.322-6.164 11.456-22.897zM122.818 236.841l362.136-160.952 10.397 23.398-362.136 160.947-10.397-23.393zM115.216 671.176v-422.641h25.6v422.641h-25.6zM487.215 525.539l-354 157.334-10.397-23.394 354-157.334 10.397 23.394zM490.683 524.803c-1.195 0-2.377 0.251-3.47 0.736l-10.394-23.395c4.365-1.939 9.088-2.941 13.864-2.941v25.6zM494.153 525.539c-1.092-0.485-2.274-0.736-3.47-0.736v-25.6c4.776 0 9.5 1.002 13.864 2.941l-10.395 23.395zM848.154 682.873l-354.002-157.334 10.397-23.394 353.999 157.334-10.394 23.394zM866.15 490.67v180.506h-25.6v-180.506h25.6zM868.68 484.813c-1.597 1.583-2.509 3.732-2.529 5.981l-25.6-0.248c0.087-8.995 3.722-17.593 10.112-23.923l18.017 18.189zM874.685 482.342c-2.253 0-4.408 0.888-6.006 2.47l-18.017-18.189c6.395-6.33 15.027-9.881 24.023-9.881v25.6zM880.686 484.813c-1.597-1.583-3.753-2.47-6.001-2.47v-25.6c8.991 0 17.623 3.551 24.018 9.881l-18.017 18.189zM883.215 490.794c-0.020-2.249-0.927-4.399-2.529-5.981l18.017-18.189c6.39 6.33 10.025 14.927 10.112 23.923l-25.6 0.248zM883.215 704.004v-213.334h25.6v213.334h-25.6zM881.838 708.654c0.901-1.384 1.377-3 1.377-4.651l25.6 0.003c0 6.601-1.915 13.061-5.509 18.596l-21.468-13.947zM878.147 711.803c1.51-0.671 2.79-1.765 3.692-3.149l21.468 13.948c-3.599 5.535-8.724 9.909-14.756 12.592l-10.404-23.39zM494.152 882.467l384-170.666 10.399 23.393-384.002 170.666-10.397-23.393zM490.683 883.2c1.198 0 2.382-0.251 3.477-0.736l10.38 23.4c-4.363 1.936-9.084 2.936-13.857 2.936v-25.6zM487.206 882.464c1.095 0.485 2.279 0.736 3.476 0.736v25.6c-4.773 0-9.494-1-13.857-2.936l10.381-23.4zM103.215 711.801l384 170.666-10.397 23.393-384-170.666 10.397-23.393zM99.529 708.654c0.899 1.384 2.181 2.478 3.689 3.149l-10.404 23.39c-6.031-2.683-11.155-7.056-14.752-12.592l21.467-13.947zM98.15 704.003c0.001 1.651 0.479 3.267 1.379 4.651l-21.467 13.947c-3.596-5.535-5.511-11.995-5.512-18.596l25.6-0.003zM98.15 234.67v469.334h-25.6v-469.334h25.6zM99.528 230.026c-0.899 1.382-1.377 2.995-1.378 4.644h-25.6c0.001-6.605 1.916-13.061 5.513-18.596l21.465 13.952zM103.215 226.877c-1.507 0.671-2.788 1.766-3.687 3.149l-21.465-13.952c3.597-5.535 8.722-9.907 14.754-12.59l10.398 23.393zM487.215 56.212l-384 170.665-10.397-23.393 384-170.665 10.397 23.393zM490.879 55.475c-1.257-0.031-2.506 0.22-3.656 0.732l-10.415-23.383c4.6-2.048 9.598-3.057 14.633-2.944l-0.563 25.595zM494.5 56.366c-1.126-0.558-2.362-0.865-3.62-0.891l0.563-25.595c5.035 0.108 9.983 1.331 14.49 3.584l-11.432 22.902zM515.825 67.031l-21.332-10.665 11.448-22.897 21.333 10.665-11.448 22.897zM518.538 69.1c-0.737-0.85-1.638-1.541-2.647-2.038l11.32-22.958c4.035 1.987 7.634 4.756 10.598 8.141l-19.272 16.855zM520.207 71.997c-0.358-1.065-0.927-2.053-1.669-2.898l19.272-16.855c2.959 3.384 5.222 7.327 6.661 11.587l-24.264 8.166zM520.632 75.31c0.077-1.121-0.067-2.248-0.425-3.313l24.264-8.161c1.434 4.26 2.012 8.765 1.695 13.256l-25.533-1.782zM519.752 78.536c0.502-1.004 0.799-2.099 0.881-3.226l25.533 1.782c-0.312 4.485-1.505 8.868-3.517 12.892l-22.897-11.448zM517.699 81.172c0.85-0.732 1.546-1.628 2.053-2.637l22.897 11.448c-2.012 4.024-4.803 7.613-8.202 10.552l-16.748-19.364zM514.79 82.826c1.070-0.353 2.058-0.916 2.908-1.654l16.748 19.364c-3.405 2.944-7.357 5.187-11.628 6.595l-8.028-24.305zM511.474 83.231c1.12 0.082 2.252-0.056 3.317-0.404l8.028 24.305c-4.275 1.413-8.781 1.966-13.267 1.628l1.922-25.528zM508.255 82.33c1.003 0.512 2.097 0.814 3.219 0.901l-1.923 25.528c-4.486-0.338-8.861-1.562-12.874-3.594l11.577-22.835zM494.834 104.023l-0.008-0.005 15.28-20.541 0.008 0.005-15.28 20.541zM334.551 612.067l150.924-67.082 10.398 23.393-150.924 67.082-10.398-23.393zM664.817 782.243l-330.265-146.782 10.397-23.393 330.267 146.782-10.399 23.394zM663.875 781.763c-0.123-0.077-0.036-0.021 0.087 0.049 0.148 0.083 0.435 0.243 0.829 0.418l10.45-23.368c1.111 0.497 2.007 1.072 2.094 1.123l-13.46 21.778zM665.354 782.595c-0.763-0.381-1.403-0.785-1.475-0.831l13.45-21.779c0.102 0.061 0.056 0.032-0.010-0.007-0.082-0.049-0.266-0.154-0.517-0.28l-11.448 22.897zM827.351 715.701l-151.076 67.142-10.399-23.394 151.081-67.142 10.394 23.394zM495.873 544.985l331.479 147.322-10.394 23.394-331.482-147.322 10.397-23.394zM623.892 806.129l-128.020 56.896-10.397-23.394 128.023-56.896 10.394 23.394zM295.215 636.655l328.678 146.080-10.394 23.393-328.681-146.080 10.397-23.394zM294.652 636.291c0.307 0.204 0.628 0.388 0.959 0.549l-11.192 23.024c-1.361-0.662-2.676-1.414-3.937-2.252l14.169-21.321zM154.017 692.307l128.352-57.052 10.398 23.393-128.352 57.052-10.398-23.393zM485.475 863.025l-331.458-147.324 10.398-23.393 331.458 147.324-10.398 23.393zM613.924 422.738c32.978 22.031 71.752 33.794 111.411 33.794v25.6c-44.723 0-88.443-13.262-125.635-38.11l14.223-21.284zM540.068 332.739c15.176 36.644 40.878 67.963 73.856 89.999l-14.223 21.284c-37.187-24.847-66.171-60.165-83.287-101.484l23.654-9.8zM528.655 216.878c-7.741 38.897-3.768 79.217 11.412 115.86l-23.654 9.8c-17.115-41.324-21.594-86.789-12.869-130.657l25.111 4.997zM583.537 114.196c-28.047 28.047-47.145 63.78-54.881 102.682l-25.111-4.997c8.727-43.863 30.261-84.157 61.887-115.784l18.104 18.099zM686.213 59.315c-38.902 7.741-74.634 26.839-102.676 54.881l-18.104-18.099c31.626-31.626 71.921-53.161 115.784-61.891l4.997 25.108zM802.074 70.728c-36.644-15.176-76.964-19.149-115.86-11.412l-4.997-25.108c43.868-8.724 89.334-4.244 130.657 12.872l-9.8 23.649zM892.073 144.589c-22.036-32.978-53.356-58.685-89.999-73.861l9.8-23.649c41.318 17.111 76.636 46.095 101.484 83.287l-21.284 14.223zM925.87 255.995c0-39.66-11.761-78.433-33.797-111.406l21.284-14.223c24.847 37.187 38.113 80.906 38.113 125.629h-25.6zM867.062 397.727c37.601-37.596 58.747-88.576 58.808-141.742l25.6 0.026c-0.067 59.95-23.916 117.427-66.304 159.816l-18.104-18.099zM725.32 456.531c53.171-0.060 104.146-21.209 141.742-58.805l18.104 18.099c-42.388 42.393-99.866 66.238-159.816 66.306l-0.031-25.6zM623.406 103.45c30.172-20.157 65.644-30.92 101.929-30.92v25.6c-31.222 0-61.742 9.262-87.706 26.609l-14.223-21.289zM555.837 185.789c13.885-33.526 37.402-62.177 67.569-82.34l14.223 21.289c-25.958 17.347-46.193 41.999-58.143 70.845l-23.649-9.795zM545.398 291.789c-7.081-35.589-3.446-72.479 10.44-105.999l23.649 9.795c-11.95 28.846-15.073 60.59-8.986 91.213l-25.103 4.992zM595.604 385.725c-25.656-25.656-43.131-58.348-50.207-93.937l25.103-4.992c6.093 30.623 21.13 58.752 43.208 80.829l-18.104 18.099zM689.541 435.937c-35.584-7.076-68.275-24.55-93.937-50.212l18.104-18.099c22.077 22.077 50.207 37.115 80.829 43.203l-4.997 25.108zM795.546 425.498c-33.526 13.885-70.415 17.521-106.004 10.44l4.997-25.108c30.623 6.093 62.367 2.964 91.213-8.98l9.795 23.649zM877.88 357.924c-20.157 30.172-48.809 53.688-82.335 67.574l-9.795-23.649c28.846-11.95 53.499-32.184 70.845-58.148l21.284 14.223zM908.8 255.995c0 36.291-10.757 71.762-30.92 101.929l-21.284-14.223c17.347-25.958 26.604-56.479 26.604-87.706h25.6zM855.009 126.326c34.391 34.391 53.74 81.019 53.791 129.659l-25.6 0.026c-0.046-41.856-16.696-81.987-46.295-111.585l18.104-18.099zM725.35 72.53c48.64 0.056 95.268 19.405 129.659 53.796l-18.104 18.099c-29.594-29.599-69.724-46.244-111.585-46.295l0.031-25.6zM786.524 322.811l-91.587-91.587 18.104-18.099 91.581 91.581-18.099 18.104zM808.371 313.754v0zM810.68 332.631c-8.986 0.051-17.628-3.441-24.054-9.723l17.894-18.309c1.603 1.572 3.763 2.447 6.011 2.432l0.148 25.6zM834.616 322.632c-6.354 6.354-14.956 9.948-23.936 9.999l-0.148-25.6c2.243-0.015 4.393-0.911 5.985-2.499l18.099 18.099zM844.616 298.696c-0.056 8.986-3.645 17.587-9.999 23.936l-18.099-18.099c1.587-1.587 2.483-3.738 2.499-5.985l25.6 0.148zM834.893 274.642c6.282 6.426 9.774 15.068 9.723 24.054l-25.6-0.148c0.010-2.243-0.86-4.403-2.432-6.011l18.309-17.894zM728.125 167.875l106.665 106.665-18.104 18.099-106.665-106.665 18.104-18.099zM717.051 160.476c4.142 1.715 7.905 4.229 11.075 7.398l-18.104 18.099c-0.794-0.794-1.736-1.423-2.77-1.848l9.8-23.649zM703.99 157.875c4.485 0 8.919 0.881 13.061 2.601l-9.8 23.649c-1.034-0.43-2.14-0.65-3.261-0.65v-25.6zM690.929 160.476c4.142-1.72 8.576-2.601 13.061-2.601v25.6c-1.121 0-2.227 0.22-3.261 0.65l-9.8-23.649zM679.854 167.875c3.169-3.169 6.932-5.683 11.075-7.398l9.8 23.649c-1.034 0.425-1.976 1.055-2.77 1.848l-18.104-18.099zM626.524 221.21l53.33-53.335 18.104 18.099-53.335 53.335-18.099-18.099zM619.064 232.182c1.761-4.157 4.332-7.921 7.562-11.080l17.894 18.309c-0.809 0.788-1.454 1.731-1.894 2.77l-23.562-9.999zM616.351 245.32c0.026-4.516 0.947-8.98 2.714-13.138l23.562 9.999c-0.44 1.039-0.671 2.156-0.676 3.287l-25.6-0.148zM618.911 258.483c-1.715-4.173-2.586-8.648-2.56-13.164l25.6 0.148c-0.005 1.126 0.21 2.243 0.64 3.287l-23.68 9.728zM626.345 269.65c-3.19-3.195-5.719-6.989-7.434-11.167l23.68-9.728c0.43 1.044 1.060 1.997 1.859 2.79l-18.104 18.104zM637.512 277.084c-4.178-1.715-7.972-4.239-11.167-7.434l18.104-18.104c0.799 0.799 1.746 1.434 2.79 1.864l-9.728 23.675zM650.68 279.644c-4.516 0.031-8.991-0.84-13.169-2.56l9.728-23.675c1.044 0.425 2.161 0.645 3.292 0.64l0.148 25.595zM663.818 276.936c-4.157 1.761-8.622 2.683-13.138 2.708l-0.148-25.595c1.126-0.010 2.243-0.241 3.282-0.681l10.004 23.567zM674.893 269.368c-3.154 3.231-6.922 5.801-11.075 7.567l-10.004-23.567c1.039-0.44 1.981-1.085 2.77-1.889l18.309 17.889zM713.042 231.224l-38.252 38.252-18.104-18.104 38.252-38.246 18.104 18.099z" />
<glyph unicode="&#xe914;" glyph-name="21" horiz-adv-x="1489" d="M1459.2 362.666h-1148.715l290.218-306.346-114.304-120.32-486.4 512 486.4 512 114.304-120.32-290.218-306.346h1148.715v-170.667z" />
<glyph unicode="&#xe915;" glyph-name="22" horiz-adv-x="1489" d="M30.255 362.666h1148.714l-290.217-306.346 114.304-120.32 486.4 512-486.4 512-114.304-120.32 290.217-306.346h-1148.714v-170.667z" />
<glyph unicode="&#xe916;" glyph-name="23" horiz-adv-x="951" d="M440.689 933.275c10.606 5.966 22.572 9.1 34.739 9.1s24.133-3.134 34.739-9.1l377.143-212.143c10.957-6.164 20.078-15.133 26.427-25.985 6.345-10.853 9.691-23.199 9.691-35.772v-422.754c0-12.573-3.346-24.92-9.691-35.771-6.349-10.854-15.47-19.822-26.427-25.988l-377.143-212.14c-10.606-5.968-22.572-9.103-34.739-9.103s-24.133 3.134-34.739 9.103l-377.142 212.14c-10.958 6.166-20.079 15.133-26.426 25.988-6.347 10.851-9.693 23.197-9.693 35.771v422.754c0 12.573 3.345 24.919 9.693 35.772s15.468 19.822 26.426 25.985l377.142 212.143zM475.429 868.895l-374.857-210.857v-420.079l374.857-210.856 374.857 210.856v420.079l-374.857 210.857zM36.798 694.575c9.828 17.645 32.1 23.982 49.745 14.154l392.773-218.774 384.746 218.584c17.562 9.977 39.888 3.829 49.865-13.733s3.829-39.886-13.733-49.863l-402.633-228.745c-11.107-6.312-24.704-6.367-35.862-0.154l-410.748 228.786c-17.645 9.828-23.982 32.1-14.154 49.745zM479.817 484.571c20.198-0.179 36.425-16.695 36.25-36.893l-4.023-457.805c-0.179-20.198-16.695-36.425-36.893-36.25-20.195 0.179-36.425 16.695-36.246 36.893l4.023 457.805c0.176 20.198 16.695 36.425 36.89 36.25z" />
<glyph unicode="&#xe918;" glyph-name="25" d="M374.286 0.133c-19.18 0-34.724 15.548-34.724 34.724v284.286c0 56.88-46.11 102.991-102.992 102.991-56.88 0-102.989-46.111-102.989-102.991v-60c0-19.18-15.547-34.727-34.725-34.727-19.175 0-34.722 15.548-34.722 34.727v377.712c0 19.179 15.546 34.725 34.722 34.725 19.179 0 34.725-15.546 34.725-34.725v-59.999c0-56.88 46.11-102.991 102.989-102.991 56.881 0 102.992 46.111 102.992 102.991v194.285c0 19.179 15.545 34.725 34.724 34.725 19.176 0 34.724-15.546 34.724-34.725v-194.285c0-56.88 46.111-102.991 102.991-102.991s102.991 46.111 102.991 102.991v284.285c0 19.179 15.544 34.725 34.724 34.725 19.176 0 34.724-15.545 34.724-34.725v-284.285c0-56.88 46.111-102.991 102.991-102.991s102.987 46.111 102.987 102.991v59.999c0 19.179 15.548 34.725 34.727 34.725 19.176 0 34.724-15.546 34.724-34.725v-377.712c0-19.18-15.548-34.727-34.724-34.727-19.18 0-34.727 15.548-34.727 34.727v60c0 56.88-46.107 102.991-102.987 102.991s-102.991-46.111-102.991-102.991v-194.287c0-19.176-15.548-34.724-34.724-34.724-19.18 0-34.724 15.548-34.724 34.724v194.287c0 56.88-46.111 102.991-102.991 102.991s-102.991-46.111-102.991-102.991v-284.286c0-19.176-15.548-34.724-34.724-34.724zM271.295 34.857c0-56.88 46.11-102.991 102.991-102.991s102.991 46.111 102.991 102.991v284.286c0 19.176 15.544 34.724 34.724 34.724 19.176 0 34.724-15.544 34.724-34.724v-194.287c0-56.88 46.111-102.991 102.991-102.991s102.991 46.111 102.991 102.991v194.287c0 19.176 15.544 34.724 34.724 34.724 19.176 0 34.72-15.544 34.72-34.724v-60c0-56.88 46.111-102.994 102.994-102.994 56.88 0 102.991 46.114 102.991 102.994v377.712c0 56.881-46.111 102.991-102.991 102.991-56.883 0-102.994-46.11-102.994-102.991v-59.999c0-19.176-15.544-34.724-34.72-34.724-19.18 0-34.724 15.548-34.724 34.724v284.285c0 56.881-46.111 102.991-102.991 102.991-56.883 0-102.991-46.11-102.991-102.991v-284.285c0-19.176-15.548-34.724-34.724-34.724-19.18 0-34.724 15.548-34.724 34.724v194.285c0 56.881-46.111 102.992-102.991 102.992-56.881 0-102.991-46.11-102.991-102.992v-194.285c0-19.176-15.545-34.724-34.725-34.724-19.176 0-34.722 15.548-34.722 34.724v59.999c0 56.881-46.11 102.991-102.992 102.991-56.88 0-102.989-46.111-102.989-102.991v-377.712c0-56.88 46.109-102.994 102.989-102.994 56.882 0 102.992 46.114 102.992 102.994v60c0 19.18 15.546 34.724 34.722 34.724 19.179 0 34.725-15.548 34.725-34.724v-284.286z" />
<glyph unicode="&#xe91a;" glyph-name="27" d="M984.030 445.901c18.852 0 34.133 15.281 34.133 34.133 0 261.857-212.275 474.133-474.132 474.133-18.852 0-34.133-15.282-34.133-34.133s15.281-34.133 34.133-34.133c224.154 0 405.866-181.712 405.866-405.866 0-18.852 15.285-34.133 34.133-34.133zM664.030 445.901c18.852 0 34.133 15.281 34.133 34.133 0 85.125-69.007 154.132-154.132 154.132-18.852 0-34.133-15.282-34.133-34.133s15.281-34.133 34.133-34.133c47.425 0 85.866-38.444 85.866-85.866 0-18.852 15.285-34.133 34.133-34.133zM824.030 445.901c18.852 0 34.133 15.281 34.133 34.133 0 173.491-140.64 314.132-314.132 314.132-18.852 0-34.133-15.282-34.133-34.133s15.281-34.133 34.133-34.133c135.789 0 245.866-110.077 245.866-245.866 0-18.852 15.285-34.133 34.133-34.133zM584.98 35.031c-74.991 26.289-179.316 80.582-291.844 193.113-112.456 112.456-167.020 217.986-193.589 294.277-13.311 38.219-19.652 69.267-22.672 90.368-1.013 7.075-1.652 13.032-2.056 17.764l107.181 107.181 170.538-170.537-48.677-48.678c-8.609-8.608-11.981-21.152-8.848-32.918l32.984 8.783c-32.984-8.783-32.98-8.796-32.976-8.813l0.009-0.034 0.019-0.072 0.043-0.157 0.105-0.379 0.29-0.993c0.231-0.771 0.538-1.751 0.934-2.932 0.792-2.365 1.939-5.54 3.541-9.462 3.205-7.847 8.224-18.664 15.848-31.949 15.263-26.604 40.867-62.932 83.028-105.093v-0.003c42.090-42.086 77.93-67.584 104.079-82.767 13.063-7.584 23.661-12.571 31.362-15.756 3.85-1.594 6.967-2.734 9.298-3.523 1.167-0.396 2.133-0.703 2.898-0.935l0.993-0.29 0.382-0.109 0.232-0.064 0.034-0.007c0.017-0.007 0.034-0.010 8.881 32.956l-8.847-32.966c11.783-3.161 24.358 0.205 32.983 8.83l49.367 49.367 169.226-169.226-109.223-109.22c-4.547 0.382-10.24 0.986-16.981 1.946-20.586 2.922-50.975 9.127-88.545 22.299zM704-23.992l0.758-34.127c8.789 0.195 17.162 3.775 23.378 9.991l144.002 143.998c13.329 13.329 13.329 34.942 0 48.271l-217.498 217.498c-6.403 6.403-15.084 9.998-24.136 9.998-9.056 0-17.736-3.594-24.136-9.998l-57.327-57.327c-3.468 1.761-7.427 3.891-11.844 6.455-20.818 12.087-51.988 33.908-90.085 72.004 0 0 0 0 0 0zM447.113 382.771c-38.021 38.021-59.907 69.567-72.086 90.795-2.741 4.775-4.994 9.035-6.833 12.742l56.753 56.753c13.329 13.329 13.329 34.942 0 48.271l-218.81 218.809c-13.33 13.33-34.942 13.33-48.272 0l-142-142c-6.26-6.26-9.843-14.708-9.993-23.561l34.128-0.575c-34.128 0.575-34.129 0.556-34.129 0.535l-0.001-0.045-0.001-0.105-0.003-0.267-0.002-0.761c0.001-0.608 0.007-1.416 0.027-2.418 0.040-2.004 0.132-4.787 0.338-8.302 0.411-7.030 1.274-16.994 3.068-29.528 3.589-25.071 10.904-60.43 25.781-103.148 29.806-85.583 89.742-200.052 209.786-320.099 119.973-119.972 233.145-179.678 317.529-209.261 42.117-14.766 76.885-21.968 101.536-25.467 12.322-1.748 22.115-2.574 29.030-2.956 3.461-0.191 6.202-0.27 8.182-0.3 0.99-0.017 1.789-0.020 2.393-0.017l1.031 0.010 0.106 0.003h0.044c0.020 0 0.041 0-0.717 34.127z" />
<glyph unicode="&#xe91b;" glyph-name="28" d="M818.248 833.148c-81.797 81.802-190.561 126.852-306.248 126.852-115.682 0-224.446-45.050-306.246-126.852-81.802-81.804-126.852-190.564-126.852-306.247 0-234.027 221.276-428.674 340.154-533.245 16.52-14.536 30.786-27.085 42.152-37.699 14.24-13.302 32.518-19.958 50.791-19.958 18.278 0 36.552 6.656 50.796 19.958 11.366 10.614 25.631 23.163 42.153 37.699 118.876 104.571 340.152 299.218 340.152 533.245 0 115.682-45.051 224.442-126.853 306.247zM565.325 38.692c-16.881-14.853-31.457-27.679-43.479-38.902-5.519-5.156-14.169-5.156-19.694 0-12.018 11.228-26.598 24.054-43.48 38.902-111.76 98.309-319.791 281.308-319.791 488.207 0 205.736 167.378 373.115 373.117 373.115s373.116-167.378 373.116-373.115c0-206.899-208.026-389.898-319.79-488.207zM511.963 734.125c-105.243 0-190.863-85.618-190.863-190.86 0-105.244 85.62-190.86 190.863-190.86s190.86 85.617 190.86 190.86c0 105.242-85.617 190.86-190.86 190.86zM511.963 412.39c-72.166 0-130.878 58.712-130.878 130.876s58.712 130.876 130.878 130.876c72.168 0 130.874-58.712 130.874-130.876s-58.706-130.876-130.874-130.876z" />
<glyph unicode="&#xe91c;" glyph-name="29" d="M930.425 866.423c-124.788 124.769-327.838 124.771-452.631-0.004-49.434-49.452-80.738-112.059-90.53-181.051-13.070-91.918-18.51-182.605-78.054-242.149-1.052-1.303-16.516-14.573-24.966-39.215-7.848-22.719-7.224-47.192 1.424-69.176l-114.912-114.921c-38.992 38.991-102.432 38.991-141.42 0.005-39.11-39.089-39.112-102.339-0.004-141.447 23.106-23.11 54.79-32.526 84.896-28.248-4.276-30.101 5.136-61.794 28.24-84.894 39.094-39.094 102.348-39.121 141.445 0 38.992 38.991 38.992 102.433 0.030 141.396-0.008 0.005-0.018 0.019-0.028 0.028l114.949 114.949c39-15.332 81.986-4.333 108.591 23.766 56.753 58.978 155.541 65.522 241.911 77.796 68.994 9.793 131.603 41.095 181.062 90.536 124.77 124.79 124.77 327.837 0 452.629zM239.701 119.11c-9.244-9.249-7.272-24.758 4.004-31.386 33.543-19.731 39.698-66.337 11.914-94.12-23.45-23.464-61.39-23.473-84.862 0.005-23.394 23.389-23.394 61.454 0 84.843 7.812 7.815 7.812 20.48 0 28.29s-20.476 7.81-28.29 0c-23.392-23.389-61.454-23.394-84.846 0-23.464 23.468-23.48 61.407 0 84.871 27.736 27.741 74.35 21.676 94.113-11.916 6.63-11.273 22.136-13.251 31.386-4.008l124.956 124.961c9.758-9.775 21.422-17.394 34.18-22.402 5.006-12.767 12.634-24.432 22.402-34.183l-124.956-124.956zM902.144 442.079c-43.278-43.259-98.048-70.651-158.399-79.22-93.431-13.27-198.945-20.899-265.211-89.768-0.242-0.251-0.484-0.489-0.735-0.74-33.095-33.098-88.715-16.943-100.385 26.866-1.844 6.931-7.254 12.339-14.18 14.182-33.104 8.82-52.69 44.204-41.158 77.582 5.018 14.629 14.826 23.24 15.29 23.813 68.798 66.285 76.416 172.842 89.508 264.948 8.568 60.347 35.96 115.119 79.211 158.389 109.196 109.174 286.864 109.174 396.055 0 109.177-109.193 109.177-286.863 0.005-396.052z" />
<glyph unicode="&#xe91d;" glyph-name="30" horiz-adv-x="1536" d="M1161.952 162.31c-38.739-14.682-78.707-25.869-119.437-33.421-5.126-0.992-9.696-3.859-12.819-8.032-3.13-4.179-4.589-9.37-4.102-14.56 0.486-5.197 2.893-10.022 6.739-13.542 3.853-3.526 8.877-5.485 14.093-5.504 1.331 0 2.656 0.128 3.962 0.384 43.206 8.019 85.606 19.898 126.694 35.494 2.573 0.992 4.928 2.483 6.918 4.384 1.997 1.901 3.603 4.179 4.717 6.701 1.12 2.522 1.728 5.242 1.792 8 0.070 2.752-0.41 5.498-1.402 8.070s-2.483 4.922-4.39 6.918c-1.901 1.997-4.179 3.603-6.701 4.717-2.522 1.12-5.235 1.728-7.994 1.792s-5.498-0.41-8.070-1.402zM1158.49 171.258c3.75 1.446 7.75 2.144 11.763 2.048 4.019-0.096 7.981-0.986 11.654-2.611 3.674-1.632 6.989-3.962 9.76-6.874 2.778-2.906 4.947-6.336 6.394-10.086 1.446-3.744 2.144-7.744 2.048-11.763-0.096-4.013-0.986-7.974-2.611-11.648s-3.962-6.995-6.874-9.766c-2.906-2.771-6.336-4.941-10.080-6.387l-0.058-0.026c-41.619-15.795-84.576-27.834-128.346-35.955l-1.754 9.44 1.818-9.427c-1.894-0.365-3.821-0.55-5.747-0.557h-0.070c-7.603 0.026-14.918 2.886-20.531 8.013-5.606 5.133-9.114 12.166-9.824 19.731-0.71 7.571 1.421 15.13 5.978 21.216s11.213 10.253 18.675 11.699l0.077 0.019c40.166 7.45 79.584 18.477 117.786 32.954l-0.058-0.019zM1169.792 154.112c-1.498 0.032-2.989-0.224-4.384-0.768l-0.058-0.019c-39.251-14.88-79.763-26.214-121.043-33.875-2.765-0.544-5.235-2.093-6.931-4.352-1.696-2.272-2.49-5.088-2.227-7.91 0.269-2.822 1.574-5.446 3.661-7.354s4.8-2.97 7.622-2.989c0.717 0 1.434 0.070 2.138 0.211l0.064 0.006c42.637 7.917 84.474 19.635 125.011 35.021 1.389 0.544 2.656 1.35 3.738 2.374 1.082 1.037 1.952 2.272 2.56 3.642 0.602 1.363 0.934 2.842 0.973 4.339 0.032 1.498-0.224 2.982-0.762 4.384-0.544 1.395-1.35 2.669-2.387 3.757-1.030 1.082-2.266 1.952-3.635 2.56-1.37 0.602-2.842 0.934-4.339 0.973zM1301.242 888.662c-215.168 134.364-593.709 11.736-852.682-134.232-310.308-157.116-379.896-308.4-389.676-397.2-1.21-2.667-1.852-5.556-1.884-8.484v-204.003c0-115.091 85.2-195.462 207.24-195.462 90.324 0 128.592 18.822 172.896 40.64 42.558 22.176 87.933 38.464 134.88 48.41 66.48 14.675 145.091 2.566 228.349-10.272 87.597-13.51 178.189-27.482 263.546-11.206 250.963 48 405.702 183.104 414.477 361.786 0.173 1.072 0.256 2.155 0.256 3.24v197.16c0 0.396-0.096 0.756-0.109 1.14 4.512 118.716-61.696 236.304-177.293 308.484zM468 717.169l0.84 0.444c175.537 99.012 407.038 187.716 598.347 187.716 79.987 0 152.973-15.528 211.859-52.296 114.918-71.76 175.2-192.84 153.6-308.484-26.605-142.392-163.872-247.347-376.595-287.999-78.278-14.95-165.222-1.504-249.318 11.45-87.238 13.446-169.604 26.144-243.812 9.754-50.249-10.611-98.816-28.026-144.36-51.757-42.828-21.069-73.776-36.301-154.332-36.301s-145.2 45.184-161.292 112.429c-23.736 99.385 59.736 260.593 365.064 415.044zM1436.582 382.753c-6.701-159.035-148.979-280.353-380.582-324.648-78.214-14.931-165.171-1.498-249.267 11.469-87.264 13.453-169.665 26.176-243.812 9.76-50.246-10.611-98.812-28.013-144.36-51.731-42.84-21.101-73.788-36.326-154.344-36.326-98.832 0-165.24 61.683-165.24 153.466v74.573c20.644-23.27 46.134-41.741 74.68-54.106s59.452-18.33 90.548-17.478c90.336 0 128.58 18.816 172.872 40.621 42.566 22.195 87.955 38.49 134.916 48.448 66.48 14.707 145.102 2.566 228.347-10.266 87.603-13.498 178.189-27.475 263.533-11.168 179.398 34.246 309.6 112.799 372.768 221.447v-52.656c-0.045-0.468-0.083-0.96-0.109-1.404h0.051zM889.363 936.062c154.758 32.286 306.234 29.884 416.966-39.263 117.875-73.604 186.189-193.911 181.824-316.279 0.006-0.085 0.019-0.178 0.026-0.276 0.032-0.312 0.058-0.727 0.058-1.212v-197.147c0.006-1.404-0.090-2.805-0.282-4.194-9.338-184.904-169.53-321.941-422.246-370.274-86.995-16.589-178.976-2.4-265.99 11.021l-0.819 0.128c-83.808 12.922-160.452 24.589-224.814 10.381l-0.079-0.013c-46.095-9.766-90.648-25.76-132.434-47.533l-0.194-0.102-0.211-0.096c-22.035-10.854-43.357-21.35-70.62-29.030-27.406-7.718-60.454-12.499-106.308-12.499-63.147 0-117.414 20.819-155.972 57.19-38.599 36.41-60.868 87.859-60.868 147.878v204.104c0.041 3.709 0.754 7.374 2.099 10.82 10.835 93.342 84.322 246.111 394.534 403.226 130.085 73.3 290.316 140.829 445.331 173.17zM893.286 917.267c-152.71-31.859-311.159-98.578-440.013-171.206l-0.373-0.211c-308.697-156.3-375.182-305.307-384.474-389.677l-0.168-1.522-0.632-1.394c-0.653-1.439-1.003-2.998-1.027-4.579v-203.937c0-55.078 20.332-101.357 54.842-133.914 34.552-32.589 83.905-51.955 142.798-51.955 44.47 0 75.718 4.634 101.103 11.782 25.405 7.155 45.3 16.915 67.455 27.827 43.29 22.541 89.443 39.104 137.191 49.222 68.272 15.059 148.405 2.701 230.69-9.99l1.146-0.173c87.949-13.568 176.838-27.174 260.282-11.27 249.005 47.629 398.24 180.614 406.694 352.831l0.026 0.516 0.077 0.511c0.096 0.572 0.141 1.15 0.134 1.729v196.751l-0.019 0.192c-0.032 0.255-0.070 0.627-0.083 1.070l-0.019 0.665c4.365 114.819-59.667 229.362-172.755 299.976-104.442 65.216-249.824 68.683-402.874 36.754zM1067.181 895.724c-188.896 0-418.688-87.805-593.624-186.477l-0.229-0.129-0.993-0.521c-151.88-76.829-247.772-154.947-302.689-225.501-54.954-70.602-68.342-132.812-57.372-178.743 14.845-62.029 74.847-105.062 151.955-105.062 39.66 0 66.631 3.75 88.742 9.901 22.143 6.157 39.81 14.816 61.252 25.37 46.276 24.102 95.62 41.786 146.671 52.57 75.968 16.768 159.837 3.84 246.198-9.478l1.107-0.173c0 0 0 0 0 0 84.506-13.011 169.709-26.086 246.048-11.507 211.091 40.346 343.424 143.669 368.96 280.336 20.742 111.056-37.024 228.503-149.248 298.578-56.89 35.522-127.93 50.839-206.778 50.839zM464.238 726.035c176.127 99.325 409.279 188.89 602.943 188.89 81.139 0 156.070-15.739 216.947-53.753 117.619-73.444 180.41-198.158 157.952-318.39-27.674-148.116-169.869-254.698-384.23-295.665-79.718-15.232-167.795-1.664-251.027 11.149l-1.549 0.237c-87.712 13.53-168.172 25.798-240.283 9.869l-0.088-0.013c-49.395-10.432-97.137-27.552-141.907-50.88l-0.197-0.102-0.32-0.154c-21.213-10.438-40.343-19.853-64.365-26.528-24.209-6.733-52.99-10.605-93.886-10.605-84.003 0-153.288 47.334-170.628 119.795-12.765 53.453 3.714 121.542 60.894 195.004 57.207 73.496 155.692 153.193 309.096 230.803l0.649 0.343zM1446.24 472.42v-80.072h0.352l-0.352-8.377v-0.31l-0.019-0.216-0.051-1.101c-6.976-165.73-155.066-289.058-388.365-333.672-79.802-15.232-168.070-1.619-251.437 11.245l-1.094 0.166c-87.738 13.53-168.23 25.824-240.278 9.875l-0.092-0.026c-49.393-10.426-97.134-27.533-141.909-50.848l-0.192-0.102-0.28-0.134c-21.236-10.458-40.378-19.885-64.417-26.573-24.211-6.739-52.993-10.605-93.889-10.605-51.412 0-95.193 16.070-126.215 44.883-31.084 28.87-48.625 69.869-48.625 118.189v99.853l16.781-18.918c19.714-22.221 44.056-39.853 71.314-51.667 27.259-11.808 56.773-17.504 86.468-16.685l0.264 0.006c44.477 0 75.722 4.627 101.101 11.77 25.398 7.155 45.284 16.909 67.434 27.814 43.297 22.56 89.461 39.136 137.224 49.261 68.159 15.072 148.15 2.739 230.268-9.914l1.574-0.243c87.949-13.555 176.838-27.168 260.262-11.232 177.85 33.952 305.011 111.474 366.272 216.846l17.901 30.787zM1427.040 384.604c-0.038-0.468-0.070-0.924-0.096-1.337l-0.499-9.215c-11.366-147.984-146.95-263.434-372.25-306.525-76.282-14.554-161.498-1.498-245.997 11.533l-1.312 0.205c-86.31 13.306-170.144 26.227-245.996 9.446-51.046-10.784-100.388-28.461-146.668-52.55-21.45-10.56-39.119-19.226-61.265-25.389-22.111-6.15-49.082-9.901-88.742-9.901-47.42 0-86.259 14.778-113.149 39.75-26.828 24.915-42.491 60.653-42.491 104.122v51.206c18.068-16.422 38.757-29.805 61.263-39.552 29.79-12.909 62.042-19.142 94.495-18.266 45.791 0.006 78.799 4.781 106.174 12.493 27.251 7.667 48.56 18.157 70.584 28.998l0.223 0.115 0.198 0.096c41.794 21.792 86.359 37.792 132.468 47.565l0.084 0.019c64.358 14.246 141.012 2.541 224.814-10.374l1.030-0.16c86.944-13.395 178.848-27.558 265.76-10.95 165.696 31.629 291.392 101.030 361.37 198.44v-19.769zM1084.499 634c49.069 0 87.507 27.996 87.507 63.744s-38.4 63.756-87.507 63.756c-49.101 0-87.501-27.996-87.501-63.756s38.432-63.744 87.501-63.744zM1084.499 719.5c27.347 0 45.504-13.092 45.504-21.756s-18.157-21.744-45.504-21.744c-27.347 0-45.504 13.092-45.504 21.744s18.208 21.756 45.504 21.756zM1016.678 750.784c17.6 12.824 41.523 20.31 67.821 20.31s50.221-7.489 67.821-20.314c17.632-12.852 29.286-31.442 29.286-53.042 0-21.603-11.667-40.19-29.299-53.037-17.6-12.821-41.53-20.307-67.808-20.307s-50.202 7.482-67.802 20.302c-17.638 12.846-29.299 31.434-29.299 53.042 0 21.605 11.648 40.196 29.28 53.046zM1027.987 735.267c-13.843-10.087-21.389-23.375-21.389-37.53 0-14.151 7.552-27.436 21.402-37.522 13.882-10.112 33.709-16.622 56.499-16.622s42.618 6.512 56.499 16.626c13.85 10.088 21.408 23.373 21.408 37.518 0 14.148-7.552 27.436-21.395 37.526-13.875 10.115-33.702 16.63-56.512 16.63-22.803 0-42.63-6.513-56.512-16.627zM1048.915 697.735c0.141-0.201 0.326-0.447 0.582-0.739 1.216-1.395 3.366-3.181 6.605-4.954 6.432-3.522 16.205-6.449 28.397-6.449s21.965 2.925 28.403 6.445c3.238 1.772 5.382 3.558 6.598 4.952 0.256 0.296 0.448 0.545 0.595 0.748-0.147 0.203-0.339 0.453-0.595 0.75-1.216 1.395-3.366 3.183-6.605 4.956-6.432 3.523-16.205 6.45-28.397 6.45-12.16 0-21.933-2.928-28.378-6.455-3.245-1.775-5.402-3.565-6.618-4.963-0.256-0.292-0.448-0.54-0.589-0.741zM1046.899 720.282c9.485 5.188 22.464 8.812 37.6 8.812 15.155 0 28.141-3.619 37.619-8.808 4.717-2.583 8.819-5.693 11.859-9.189 2.906-3.337 5.626-7.948 5.626-13.359s-2.72-10.022-5.626-13.358c-3.046-3.495-7.142-6.604-11.866-9.185-9.478-5.185-22.458-8.801-37.613-8.801s-28.134 3.619-37.613 8.806c-4.723 2.582-8.819 5.69-11.866 9.184-2.906 3.332-5.626 7.942-5.626 13.354 0 5.418 2.733 10.031 5.638 13.361 3.046 3.492 7.149 6.601 11.866 9.184z" />
<glyph unicode="&#xe91e;" glyph-name="31" horiz-adv-x="1755" d="M468.043 561.503l-0.045 0.020c-59.709 26.698-133.77-13.214-168.566-90.884-34.786-77.64-15.288-159.457 44.438-186.285 12.555-5.613 25.738-8.283 39.058-8.283 50.081 0 102.061 37.803 129.51 99.168 34.783 77.637 15.285 159.453-44.396 186.264zM462.41 397.637c-21.47-47.986-65.499-76.961-96.123-63.261-30.614 13.752-38.322 65.891-16.831 113.849 17.88 39.909 51.349 66.659 79.728 66.659 5.729 0 11.256-1.091 16.399-3.384 30.61-13.752 38.321-65.887 16.827-113.863zM1729.946 460.223l-33.236 33.333c-1.865 1.851-2.253 3.977-2.253 5.435s0.388 3.583 2.348 5.527l33.112 33.213c16.406 16.409 25.446 38.287 25.446 61.607s-9.040 45.199-25.446 61.608c-33.924 33.926-89.22 33.946-123.326-0.010l-78.073-78.168h-71.3c-12.902 50.232-58.529 87.469-112.691 87.469h-212.809c-121.761 104.356-195.964 165.868-278.104 205.066-81.905 39.093-169.152 55.090-320.644 58.684-13.080 4.762-26.702 8.249-40.834 10.399-58.55 8.921-110.476-4.114-154.334-38.702-89.181-70.331-106.341-196.896-109.474-234.007-10.1-119.455-51.141-188.256-146.379-245.4-41.767-25.070-69.713-71.921-78.7-131.921-9.099-60.785 1.001-134.319 29.215-212.655 27.017-74.869 90.587-118.535 188.948-129.785 18.539-2.128 37.533-3.013 56.578-3.013 60.864 0 122.146 9.099 169.961 16.194 7.21 1.075 14.133 2.099 20.75 3.057 20.411 2.948 40.903 9.611 60.802 19.485 164.62 10.715 281.321 34.75 377.738 77.758 92.826 41.399 162.977 97.916 251.794 169.462 34.633 27.902 73.648 59.331 117.906 92.894h67.584c54.155 0 99.789 37.234 112.684 87.469h71.3l78.131-78.219c17.020-16.941 39.344-25.413 61.652-25.413 22.331 0.004 44.646 8.489 61.616 25.457 33.975 33.953 33.975 89.228 0.037 123.175zM460.881 22.389c-6.672-0.958-13.684-1.997-20.98-3.087-115.954-17.211-310.042-46.029-355.872 80.976-53.866 149.557-25.69 247.888 26.126 278.989 111.079 66.648 161.14 150.027 172.786 287.781l0.004 0.003c5.492 65.030 31.704 150.559 88.796 195.587 24.95 19.676 53.839 29.578 86.147 29.578 8.434 0 17.104-0.672 25.999-2.026 59.043-8.983 105.521-48.343 138.147-116.98 26.132-54.973 43.128-129.805 47.856-210.685 3.501-60.597-9.83-92.973-22.724-124.286-15.583-37.841-31.697-76.972-11.925-149.396 13.224-48.436-0.579-110.447-36.922-165.882-36.597-55.823-87.987-93.418-137.438-100.571zM1406.047 444.174c0-33.977-27.597-61.618-61.52-61.618h-85.95l-7.322-5.523c-47.982-36.172-89.754-69.813-126.596-99.501-160.322-129.147-248.386-200.074-514.406-228.146 12.206 13.232 23.599 27.787 33.912 43.52 44.825 68.367 61.262 147.011 43.961 210.367-14.852 54.398-4.539 79.437 9.73 114.086 13.804 33.524 30.984 75.246 26.764 148.34-3.634 62.098-15.785 152.592-53.071 231.038-14.544 30.604-31.931 56.784-51.802 78.332 207.213-15.702 275.682-74.389 483.993-253.052l7.702-6.607h233.092c33.924 0 61.513-27.641 61.513-61.615v-109.621zM1691.158 375.791c-12.603-12.597-33.156-12.58-45.787-0.011l-94.142 94.245h-90.368v57.922h90.368l94.091 94.193c12.668 12.631 33.229 12.644 45.831 0.045 6.064-6.058 9.399-14.174 9.399-22.848s-3.343-16.789-9.428-22.875l-33.046-33.144c-11.893-11.811-18.439-27.555-18.439-44.327s6.546-32.513 18.344-44.232l33.17-33.264c12.603-12.603 12.603-33.106 0.007-45.703z" />
<glyph unicode="&#xe91f;" glyph-name="32" d="M17.161 689.612c158.118 103.482 330.98 122.782 482.7 57.258 128.759 58.417 366.963-45.478 377.216-50.012 6.703-2.913 11.281-9.596 11.87-17.485 0.627-7.86-2.718-15.865-8.836-21.131-58.274-50.292-122.074-108.927-144.934-134.791 28.745-44.002 51.622-86.353 63.991-117.781 100.343 59.174 202.3 1.775 206.929-0.9 10.202-5.892 13.184-19.785 6.673-31.070-68.284-118.268-139.827-156.113-180.049-168.213 9.63-40.883 12.629-121.766-55.654-240.034-6.515-11.281-20.041-15.646-30.242-9.758-4.629 2.675-105.318 62.272-104.243 178.756-44.378-6.647-114.615-6.895-186.748 0.828-0.418-30.037-14.784-69.901-44.758-121.818-6.514-11.285-20.040-15.646-30.241-9.758-5.488 3.166-130.292 76.83-145.975 194.001-156.989 95.168-240.697 266.266-229.183 472.015 0.45 7.979 4.8 15.513 11.485 19.892zM824.951 667.337c-67.746 25.873-183.65 60.224-266.423 49.719 51.721-32.919 106.598-94.179 151.885-157.44 28.885 31.164 79.377 76.756 114.539 107.721zM386.197 56.606c30.324 58.202 26.857 79.552 25.251 84.437-44.024 6.801-86.867 16.742-123.168 30.276 22.046-54.268 71.022-95.475 97.917-114.714zM414.024 140.557l0.025 0.060c-0.061 0.009-0.122 0.026-0.183 0.034 0.113-0.047 0.037-0.047 0.157-0.094zM266.996 232.725c107.846-62.263 340.722-66.133 394.717-48.030 5.786 1.95 11.814 1.365 16.738-1.476 1.118-0.649 2.18-1.421 3.174-2.287 5.325-4.723 7.821-12.173 6.652-19.814-11.977-78.268 36.527-129.527 64.213-151.868 68.087 131.247 33.088 197.035 31.232 200.311-4.079 6.955-3.81 16.077 0.461 23.684 4.318 7.684 12.301 12.565 20.48 12.625 3.311 0.030 77.969 2.189 157.82 127.095-33.263 12.638-102.272 28.877-163.558-20.203-6.033-4.834-13.739-6.4-20.489-4.147-6.818 2.261-11.733 8.026-13.214 15.364-11.319 55.812-131.106 255.554-238.955 317.818-145.712 84.127-319.075 75.326-477.47-23.713-6.574-186.697 72.486-341.231 218.198-425.361zM341.204 489.254c54.229 93.927 53.94 170.801 53.931 171.577-0.154 12.635 9.485 23.92 21.547 25.249 12.038 1.289 22.004-7.84 22.239-20.416 0.077-3.659 0.973-90.715-60.808-197.722-61.78-107.004-137.622-149.756-140.827-151.522-6.957-3.849-14.657-3.657-20.621-0.213-3.514 2.031-6.42 5.197-8.239 9.331-4.874 11.157 0.145 25.135 11.225 31.262 0.661 0.354 66.827 37.666 121.552 132.454zM443.187 665.751c-0.286 14.909-12.271 26.144-26.96 24.571l-0.013-0.002c-14.378-1.584-25.524-14.848-25.346-29.539 0 0.004 0.002-0.3-0.008-0.902-0.010-0.595-0.032-1.472-0.079-2.616-0.094-2.29-0.289-5.649-0.692-9.965-0.805-8.631-2.438-21.078-5.751-36.425-6.627-30.694-19.969-72.966-46.829-119.487-27.11-46.959-57.033-79.642-80.217-100.608-11.592-10.483-21.497-18.035-28.519-22.976-7.039-4.949-11.157-7.258-11.153-7.253l-0.032-0.017c-12.889-7.125-18.881-23.403-13.072-36.706l0.005-0.009c2.178-4.954 5.698-8.815 10.010-11.307 7.314-4.224 16.608-4.365 24.816 0.175zM443.187 665.751c0-0.002 0-0.004 0-0.006v0.006zM390.868 660.782v-0.003c0 0.001 0 0.002 0 0.003zM417.142 681.839c9.382 1.001 17.32-6.017 17.512-16.254v-0.007c0.064-3.162 1.037-89.377-60.236-195.502-61.27-106.121-136.419-148.39-139.19-149.918l-0.009-0.004c-5.704-3.157-11.808-2.914-16.421-0.252-2.715 1.57-5.007 4.036-6.466 7.351l0.005-0.009c-3.939 9.015 0.106 20.693 9.379 25.818 2.002 1.109 68.327 39.044 123.183 134.059 54.73 94.794 54.517 172.494 54.502 173.759v0.003c-0.129 10.576 8 19.878 17.741 20.955zM490.607 643.435c12.058 1.278 21.986-7.83 22.238-20.416 0.077-3.657 0.973-90.714-60.804-197.718-32.997-57.152-70.063-95.633-95.357-117.841-7.505-6.588-17.458-7.595-24.938-3.277-2.145 1.242-4.101 2.927-5.722 5.030-7.273 9.463-5.315 24.013 4.355 32.516 22.393 19.682 55.289 53.85 84.751 104.879 54.23 93.929 53.94 170.804 53.932 171.579-0.154 12.632 9.485 23.918 21.547 25.246zM517.111 623.105c-0.299 14.915-12.245 26.132-26.953 24.572l-0.017-0.002c-14.379-1.584-25.527-14.848-25.348-29.536 0 0 0-0.001 0-0.001 0-0.023 0-0.326-0.009-0.901-0.009-0.595-0.030-1.472-0.077-2.616-0.098-2.289-0.29-5.649-0.695-9.964-0.802-8.631-2.436-21.078-5.751-36.425-6.626-30.694-19.968-72.966-46.828-119.489-29.187-50.551-61.758-84.369-83.873-103.808h-0.001c-11.14-9.796-13.731-26.854-4.92-38.319l0.003-0.004c1.962-2.547 4.341-4.604 6.969-6.123 9.204-5.312 21.133-3.921 29.886 3.767zM491.068 639.192c9.399 0.992 17.306-6.007 17.515-16.26v-0.002c0.064-3.159 1.033-89.376-60.237-195.496-32.721-56.674-69.46-94.805-94.477-116.766v0c-6.257-5.495-14.234-6.114-19.989-2.79-1.663 0.96-3.195 2.278-4.477 3.942-5.731 7.462-4.404 19.494 3.792 26.705 22.671 19.93 55.892 54.443 85.629 105.95 54.729 94.796 54.516 172.497 54.503 173.761v0.003c-0.128 10.572 8 19.874 17.741 20.952zM242.288 573.588c-20.385 11.769-26.357 39.587-13.34 62.134s40.095 31.284 60.479 19.514c20.385-11.769 26.357-39.587 13.34-62.134s-40.095-31.283-60.479-19.514zM287.294 651.543c18.002-10.394 23.824-35.441 11.778-56.305s-36.649-28.346-54.651-17.953c-18.002 10.394-23.824 35.441-11.778 56.305s36.649 28.346 54.651 17.953zM306.462 590.97c13.988 24.228 7.866 54.818-14.901 67.962s-52.32 3.152-66.308-21.076c-13.988-24.228-7.866-54.818 14.901-67.962s52.32-3.152 66.308 21.076z" />
<glyph unicode="&#xe920;" glyph-name="33" d="M623.731 727.653c-7.77 0-14.063 6.298-14.063 14.062v31.629c0 7.764 6.293 14.062 14.063 14.062 7.761 0 14.059-6.298 14.059-14.062v-31.629c0-7.764-6.298-14.062-14.059-14.062zM623.731 781.002c-4.237 0-7.663-3.432-7.663-7.663v-31.629c0-4.231 3.426-7.663 7.663-7.663 4.228 0 7.659 3.433 7.659 7.663v31.629c0 4.229-3.43 7.663-7.659 7.663zM603.268 773.34c0 11.296 9.156 20.463 20.463 20.463 11.298 0 20.459-9.164 20.459-20.463v-31.629c0-11.299-9.161-20.463-20.459-20.463-11.307 0-20.463 9.166-20.463 20.463v31.629zM619.742 691.781c0-7.764-6.298-14.062-14.063-14.062h-26.701c-7.761 0-14.063 6.298-14.063 14.062s6.302 14.063 14.063 14.063h26.701c7.765 0 14.063-6.299 14.063-14.063zM578.978 699.44c-4.228 0-7.663-3.434-7.663-7.663s3.435-7.663 7.663-7.663h26.701c4.233 0 7.663 3.433 7.663 7.663s-3.43 7.663-7.663 7.663h-26.701zM558.515 691.777c0 11.298 9.165 20.463 20.463 20.463h26.701c11.298 0 20.463-9.164 20.463-20.463s-9.165-20.463-20.463-20.463h-26.701c-11.298 0-20.463 9.164-20.463 20.463zM987.635 836.718c7.876 15.076 3.379 33.926-10.458 43.846-15.206 10.904-37.073 7.307-47.991-7.91-27.315-38.103-69.269-62.045-124.685-71.185-0.768-0.123-1.553-0.234-2.325-0.352 0.508 8.233 0.768 15.89 0.849 22.822 0.35 30.961-25.344 57.076-56.363 57.076-0.128 0-313.105 0-313.105 0-39.868 0-79.331-5.924-117.287-17.607-54.873-16.846-106.734-46.049-150-84.445-43.084-38.25-78.058-85.986-101.138-138.046-22.412-50.525-33.726-104.144-33.633-159.392 0.152-84.203 26.227-164.655 75.404-232.64 45.328-62.711 107.373-110.255 177.872-137.916 11.772-16.495 31.98-38.865 64.277-58.18 42.058-25.152 93.217-38.345 152.050-39.194 37.483-0.431 71.262 26.347 78.541 63.398 0.461 2.351 1.869 9.523 14.054 10.714 40.657 3.942 69.077 37.892 71.147 77.589 0.495 9.434 1.045 11.324 3.947 13.466 20.087 14.797 32.077 38.511 32.077 63.424 0 44.796-37.538 80.986-82.876 78.694-52.467-0.132-91.106-25.562-125.197-48-20.092-13.227-39.194-25.783-59.17-32.060-17.53 18.167-31.874 39.765-39.52 63.949-10.664 34.227-6.773 70.49 10.922 102.182 0.035 0.060 0.070 0.102 0.111 0.158 14.092 25.242 36.303 45.487 62.535 57.020 11.029 4.855 22.724 8.201 34.795 9.941 32.644 4.727 61.751 12.143 87.748 21.653 3.563-0.516 7.39-1.105 11.593-1.843 19.494-3.452 40.175-8.431 65.101-15.671 58.837-17.105 112.67-48.828 151.578-89.327 16.653-17.34 30.95-39.347 44.988-69.257 7.957-16.951 28.8-24.482 45.751-16.525 16.154 7.586 23.782 25.993 17.728 42.825-13.645 37.999-29.449 67.597-49.745 93.141-38.938 49.024-92.894 89.749-160.371 121.055-4.173 1.94-8.495 3.85-12.988 5.754 1.493 1.465 2.957 2.941 4.403 4.418 3.657 0.076 7.087 0.117 10.308 0.117 16.26 0 29.478-0.932 41.6-2.93 55.411-9.135 97.365-33.082 124.689-71.173 10.901-15.219 32.759-18.833 47.987-7.91 13.833 9.916 18.334 28.77 10.458 43.844-17.067 32.678-36.873 56.954-62.336 76.425-31.654 24.193-69.739 42.662-110.976 53.947 5.406 12.317 9.937 24.651 13.764 36.815 53.056 9.58 101.841 30.522 141.555 60.873 25.463 19.459 45.269 43.74 62.332 76.418zM732.412 598.3c9.506 12.527 17.766 25.459 24.934 38.572 39.765-10.166 76.416-27.533 106.539-50.56 22.080-16.875 39.394-38.197 54.481-67.089 1.429-2.743 0.61-6.17-1.911-7.97-2.795-2.010-6.737-1.353-8.747 1.438-31.821 44.383-79.923 72.156-142.976 82.551-9.958 1.641-20.454 2.637-32.32 3.058zM635.046 515.721c16.623 8.9 31.625 18.789 45.15 29.43 8.994-3.522 17.165-7.002 24.806-10.541 63.462-29.444 113.993-67.477 150.182-113.033 18.325-23.074 32.725-50.133 45.303-85.158 1.088-3.051-0.316-6.498-3.213-7.859-3.085-1.442-6.878-0.094-8.341 3.017-15.381 32.768-31.317 57.169-50.163 76.787-42.274 44.006-100.514 78.4-164.015 96.849-14.37 4.177-27.422 7.637-39.71 10.509zM462.507 117.892c21.922 30.046 19.524 73.122-5.218 100.51-0.294 0.316-0.572 0.644-0.87 0.96 18.231 7.893 35.234 19.085 51.844 30.012 32.384 21.325 65.877 43.366 110.114 43.366 28.297 0 54.366-20.659 54.366-50.556 0-16.256-7.526-31.13-20.634-40.798-14.080-10.377-14.81-24.384-15.351-34.628-1.34-25.762-19.012-48.461-45.777-51.063-20.689-2.018-35.243-14.455-38.938-33.293-4.685-23.923-26.342-41.033-50.517-40.683-33.805 0.491-108.093 7.168-162.943 52.399 42.522-10.035 94.51-16.546 123.924 23.774zM59.624 481.574c-0.064 39.415 6.123 77.943 18.445 114.945 0.399-0.855 0.826-1.705 1.236-2.561 22.154-46.031 56.888-85.043 98.238-114.756 55.254-39.701 120.726-63.689 187.418-75.469 0.656-0.115 6.609-1.527 6.808-1.148-12.48-30.596-15.058-63.735-7.365-95.817 0.058-0.26-4.512-2.679-4.91-2.914-7.377-4.301-15.012-8.196-22.752-11.776-6.926-3.217-10.072-11.738-6.85-18.679 3.235-6.955 11.772-10.044 18.68-6.839 7.834 3.635 24.445 12.617 25.025 12.958 12.908-29.376 33.656-54.413 57.877-75.17 0.030-0.030 0.060-0.055 0.090-0.085 29.884-25.327 20.454-75.767-17.080-87.723-34.494-10.995-81.972 6.477-114.298 18.607-56.297 21.124-107.021 55.842-147.392 101.385 15.129-1.963 30.615-2.927 45.714-2.999 32.402-0.128 64.816 4.493 96.012 13.18 7.301 2.027 11.813 9.993 9.768 17.318-2.033 7.326-10.008 11.819-17.315 9.775-29.678-8.256-60.457-12.386-91.265-12.109-22.277 0-44.537 2.743-66.31 7.386-0.931 0.192-1.857 0.41-2.783 0.614-43.705 62.242-66.843 135.386-66.99 211.878zM774.899 824.261c-0.969-83.672-25.621-168.023-83.255-230.408-0.021-0.017-0.030-0.035-0.051-0.058-50.615-53.654-121.267-81.479-193.143-91.885-11.678-1.69-23.078-4.617-34.010-8.73-0.823-0.32-7.915 6.767-8.657 7.415-31.8 27.998-58.8 61.875-79.431 98.848-15.334 27.457-27.311 56.812-35.308 87.234-1.969 7.512-9.662 12-17.174 10.025-7.511-1.98-12-9.668-10.019-17.174 11.707-44.262 31.031-86.396 56.777-124.247 18.586-27.328 40.494-52.399 65.102-74.453 0.422-0.384 0.832-0.764 1.254-1.131-20.642-12.74-38.378-30.161-51.526-50.726-7.793 1.020-15.557 2.342-23.267 3.84-0.234 0.038-0.463 0.081-0.697 0.128-47.508 8.38-94.927 25.673-136.898 49.395-59.789 33.754-108.463 85.416-131.138 150.97-0.135 0.375-0.252 0.756-0.381 1.125 21.451 46.506 53.127 89.109 91.875 123.498 34.612 30.72 75.141 55.119 118.248 71.32-0.832-7.301-1.459-14.625-1.898-21.972-1.441-23.531-0.791-47.226 1.863-70.646 0.89-7.84 8.695-13.664 16.465-12.24 7.184 1.312 12.311 8.121 11.485 15.41-3.475 30.539-3.24 61.471 0.733 91.963 0.316 2.414 0.656 4.816 1.019 7.219 32.701 9.228 66.533 13.91 100.681 13.91h313.118c7.595 0 14.724-2.971 20.058-8.373 5.359-5.42 8.269-12.615 8.179-20.256zM962.705 849.731c-15.095-28.899-32.405-50.221-54.481-67.090-32.87-25.125-72.708-43.213-116.237-52.892 3.004 13.078 5.376 26.566 7.117 39.726 0.124 0.967 0.282 1.928 0.397 2.895 3.273 0.387 6.451 0.832 9.57 1.354 63.049 10.383 111.151 38.156 142.98 82.541 2.057 2.865 6.076 3.351 8.738 1.435 2.522-1.804 3.345-5.226 1.916-7.968z" />
<glyph unicode="&#xe921;" glyph-name="34" d="M204.833 960c-22.624-0.027-44.313-9.026-60.31-25.023s-24.996-37.686-25.024-60.31v-853.333c0.027-22.622 9.026-44.314 25.024-60.309s37.686-24.998 60.31-25.024h614.401c22.622 0.026 44.314 9.028 60.309 25.024s24.994 37.687 25.024 60.309v853.333c-0.030 22.624-9.028 44.313-25.024 60.31s-37.687 24.996-60.309 25.023h-614.401zM819.234-29.867h-614.401c-13.579 0-26.602 5.393-36.204 14.997-9.602 9.6-14.996 22.622-14.996 36.203v324.267h716.801v-324.267c0-13.581-5.393-26.603-14.997-36.203-9.6-9.604-22.626-14.997-36.203-14.997zM546.167 755.2c4.527 0 8.866 1.798 12.066 4.999s5.001 7.541 5.001 12.068v29.321c58.517-56.33 102.413-126.083 127.881-203.213-33.792-15.275-90.095-30.908-179.081-30.908s-145.289 15.633-179.081 30.908c31.378 94.751 90.366 177.958 169.388 238.933 2.795 2.082 6.182 3.206 9.668 3.206 3.482 0 6.874-1.125 9.668-3.206 2.304-1.707 4.898-3.84 7.424-5.837v-59.204c0-4.527 1.796-8.867 4.996-12.068 3.204-3.201 7.543-4.999 12.070-4.999zM750.694 441.941l1.195-0.7c10.15-6.042 18.551-14.626 24.371-24.9 5.824-10.278 8.87-21.897 8.841-33.707v-2.901h-36.301c1.297 18.295 2.167 36.676 2.167 54.955 0 2.492-0.239 4.779-0.273 7.253zM307.233 434.688c-0.081 44.053 5.349 87.94 16.162 130.645 60.074-23.293 124.242-34.176 188.639-32 64.393-2.176 128.563 8.707 188.638 32 10.812-42.705 16.243-86.592 16.162-130.645 0-18.278-0.887-36.676-2.236-54.955h-405.129c-1.348 18.278-2.236 36.676-2.236 54.955zM275.267 379.733h-36.301v2.901c-0.023 11.797 3.025 23.403 8.845 33.664 5.82 10.266 14.212 18.837 24.349 24.875l1.212 0.717c0-2.458-0.273-4.762-0.273-7.253 0-18.227 0.87-36.608 2.167-54.903zM870.434 874.667v-494.933h-51.2v2.901c0.060 17.707-4.497 35.119-13.227 50.526-8.725 15.407-21.321 28.267-36.54 37.316l-20.48 12.339c-5.713 74.58-27.072 147.121-62.686 212.896-35.618 65.775-84.689 123.308-144.026 168.851-8.734 6.54-19.349 10.074-30.259 10.074s-21.525-3.534-30.259-10.074c-59.317-45.553-108.372-103.090-143.971-168.865s-56.941-138.31-62.639-212.882l-20.582-12.356c-15.211-9.050-27.799-21.909-36.521-37.312s-13.275-32.815-13.212-50.513v-2.901h-51.2v494.933c0 13.579 5.394 26.602 14.996 36.204s22.625 14.996 36.204 14.996h614.401c13.577 0 26.603-5.394 36.203-14.996 9.604-9.602 14.997-22.625 14.997-36.204zM588.322 182.221l39.731-10.701c1.442-0.38 2.927-0.576 4.42-0.58 4.143 0 8.145 1.506 11.26 4.233 3.115 2.731 5.129 6.502 5.67 10.607s-0.431 8.269-2.731 11.712c-2.304 3.443-5.777 5.935-9.779 7.002l-6.827 1.826 8.653 5.001c3.887 2.283 6.716 6.007 7.868 10.364s0.533 8.994-1.719 12.894c-2.253 3.904-5.956 6.758-10.308 7.936-4.348 1.182-8.99 0.597-12.907-1.634l-8.653-5.001 1.826 6.827c1.173 4.373 0.559 9.033-1.702 12.954s-5.99 6.784-10.364 7.953c-4.373 1.173-9.033 0.563-12.949-1.702-3.921-2.261-6.784-5.99-7.957-10.364l-10.667-39.799-42.121-24.32v48.708l29.133 29.133c3.11 3.221 4.83 7.531 4.791 12.006s-1.835 8.755-4.996 11.921c-3.166 3.162-7.445 4.958-11.921 4.996s-8.785-1.681-12.006-4.791l-5.001-5.001v10.001c0 4.527-1.796 8.87-4.996 12.070s-7.543 4.996-12.070 4.996c-4.527 0-8.866-1.796-12.066-4.996s-5.001-7.543-5.001-12.070v-10.001l-5.001 5.001c-3.217 3.11-7.531 4.83-12.002 4.791-4.476-0.038-8.755-1.835-11.921-4.996-3.166-3.166-4.958-7.445-4.996-11.921-0.043-4.476 1.681-8.785 4.787-12.006l29.133-29.133v-48.708l-42.172 24.354-10.735 39.799c-1.173 4.373-4.032 8.102-7.953 10.364-3.921 2.266-8.58 2.876-12.953 1.702-4.372-1.169-8.1-4.032-10.363-7.953s-2.875-8.58-1.703-12.954l1.826-6.827-8.653 5.001c-3.918 2.231-8.558 2.816-12.907 1.634-4.349-1.178-8.055-4.032-10.309-7.936-2.253-3.9-2.871-8.538-1.719-12.894s3.98-8.081 7.868-10.364l8.653-5.001-6.827-1.826c-3.999-1.067-7.473-3.554-9.775-6.997s-3.273-7.603-2.735-11.708c0.538-4.105 2.551-7.872 5.663-10.607 3.111-2.731 7.11-4.237 11.249-4.241 1.498 0.004 2.99 0.196 4.437 0.58l39.782 10.667 42.257-24.354-42.189-24.354-39.73 10.701c-2.165 0.585-4.423 0.73-6.645 0.439-2.223-0.294-4.366-1.020-6.307-2.142-1.941-1.118-3.643-2.611-5.008-4.39-1.365-1.775-2.366-3.806-2.947-5.973-0.58-2.163-0.729-4.42-0.436-6.643s1.019-4.365 2.14-6.306c1.12-1.941 2.612-3.644 4.39-5.009s3.808-2.364 5.972-2.948l6.827-1.826-8.653-5.001c-1.957-1.109-3.674-2.598-5.053-4.378s-2.392-3.814-2.982-5.986c-0.59-2.172-0.744-4.437-0.454-6.669s1.019-4.386 2.144-6.336c1.125-1.95 2.625-3.657 4.413-5.022 1.788-1.37 3.828-2.368 6.004-2.944s4.445-0.713 6.674-0.41c2.23 0.307 4.378 1.050 6.319 2.185l8.653 5.001-1.826-6.827c-0.581-2.163-0.729-4.42-0.437-6.643s1.019-4.365 2.14-6.306c1.12-1.941 2.612-3.644 4.391-5.009s3.808-2.368 5.973-2.948c1.442-0.38 2.928-0.576 4.42-0.58 3.758 0 7.41 1.242 10.388 3.529 2.982 2.287 5.124 5.491 6.097 9.118l10.667 39.799 42.121 24.32v-48.708l-29.133-29.133c-3.106-3.217-4.83-7.526-4.787-12.002 0.038-4.476 1.83-8.755 4.996-11.921 3.166-3.162 7.445-4.958 11.921-4.996 4.471-0.038 8.785 1.681 12.002 4.787l5.001 5.001v-10.001c0-4.523 1.801-8.866 5.001-12.066s7.539-5.001 12.066-5.001c4.527 0 8.87 1.801 12.070 5.001s4.996 7.543 4.996 12.066v10.001l5.001-5.001c3.221-3.106 7.531-4.826 12.006-4.787s8.755 1.835 11.921 4.996c3.162 3.166 4.958 7.445 4.996 11.921s-1.681 8.785-4.791 12.002l-29.133 29.133v48.708l42.172-24.354 10.667-39.799c0.973-3.627 3.119-6.831 6.097-9.118 2.982-2.287 6.635-3.529 10.389-3.529 1.493 0.004 2.978 0.201 4.42 0.58 2.167 0.58 4.194 1.583 5.973 2.948s3.273 3.068 4.39 5.009c1.122 1.941 1.847 4.083 2.142 6.306 0.29 2.223 0.141 4.48-0.439 6.643l-1.826 6.827 8.653-5.001c1.941-1.135 4.092-1.877 6.319-2.185 2.231-0.303 4.501-0.166 6.677 0.41s4.215 1.574 6.003 2.944c1.788 1.365 3.29 3.072 4.412 5.022 1.126 1.95 1.856 4.105 2.146 6.336s0.137 4.497-0.457 6.669c-0.589 2.172-1.6 4.207-2.982 5.986-1.378 1.779-3.093 3.268-5.052 4.378l-8.653 5.001 6.827 1.826c4.378 1.182 8.107 4.049 10.368 7.979s2.871 8.597 1.69 12.971c-1.178 4.378-4.049 8.107-7.974 10.368-3.93 2.261-8.597 2.871-12.975 1.69l-39.782-10.667-42.138 24.32 42.189 24.354zM460.868 721.062c-10.129 0-20.028-3.003-28.446-8.628-8.421-5.626-14.983-13.623-18.858-22.978s-4.889-19.65-2.914-29.582c1.975-9.932 6.852-19.055 14.012-26.215 7.162-7.16 16.285-12.037 26.217-14.012 9.929-1.975 20.224-0.962 29.581 2.914s17.353 10.438 22.976 18.857c5.628 8.42 8.631 18.319 8.631 28.445 0 13.579-5.397 26.602-14.997 36.204-9.604 9.602-22.626 14.996-36.203 14.996zM460.868 652.796c-3.375 0-6.677 1.001-9.485 2.876-2.803 1.876-4.992 4.541-6.285 7.66s-1.63 6.55-0.973 9.861c0.661 3.311 2.287 6.351 4.672 8.739 2.389 2.387 5.427 4.012 8.738 4.671s6.741 0.32 9.86-0.972c3.119-1.292 5.786-3.479 7.663-6.286 1.873-2.807 2.876-6.106 2.876-9.482 0-4.526-1.801-8.867-5.001-12.068s-7.543-4.999-12.066-4.999zM614.451 482.133c-4.527 0-8.87-1.796-12.070-4.996s-4.996-7.543-4.996-12.070c0-4.523-1.801-8.866-5.001-12.066s-7.539-5.001-12.066-5.001c-4.527 0-8.87 1.801-12.070 5.001s-4.996 7.543-4.996 12.066c0 4.527-1.801 8.87-5.001 12.070s-7.539 4.996-12.066 4.996c-4.527 0-8.87-1.796-12.070-4.996s-4.996-7.543-4.996-12.070c0-4.523-1.801-8.866-5.001-12.066s-7.539-5.001-12.066-5.001c-4.527 0-8.87 1.801-12.070 5.001s-4.996 7.543-4.996 12.066c0 4.527-1.801 8.87-5.001 12.070s-7.539 4.996-12.066 4.996c-4.527 0-8.87-1.796-12.070-4.996s-4.996-7.543-4.996-12.070c0-4.523-1.801-8.866-5.001-12.066s-7.539-5.001-12.066-5.001c-4.527 0-8.87 1.801-12.070 5.001s-4.996 7.543-4.996 12.066c0 4.527-1.799 8.87-5 12.070s-7.541 4.996-12.068 4.996c-4.526 0-8.867-1.796-12.068-4.996s-4.999-7.543-4.999-12.070c0.007-9.877 2.873-19.546 8.251-27.836 5.379-8.286 13.041-14.844 22.063-18.871 9.022-4.032 19.014-5.367 28.781-3.844 9.762 1.523 18.876 5.841 26.24 12.425 9.374-8.414 21.53-13.069 34.133-13.069 12.599 0 24.755 4.655 34.133 13.069 7.364-6.583 16.478-10.901 26.24-12.425s19.759-0.188 28.779 3.844c9.020 4.028 16.683 10.586 22.063 18.871 5.376 8.29 8.243 17.958 8.252 27.836 0 4.527-1.801 8.87-5.001 12.070s-7.539 4.996-12.066 4.996zM216.926 828.472l34.133 34.133c1.63 1.574 2.93 3.458 3.825 5.54s1.365 4.322 1.385 6.588c0.020 2.266-0.412 4.514-1.27 6.611s-2.126 4.003-3.728 5.605c-1.603 1.603-3.508 2.87-5.606 3.728s-4.345 1.29-6.611 1.27c-2.266-0.020-4.506-0.49-6.588-1.385s-3.965-2.194-5.54-3.825l-34.133-34.133c-1.63-1.574-2.93-3.457-3.825-5.539s-1.365-4.322-1.385-6.588c-0.020-2.266 0.412-4.513 1.27-6.611s2.125-4.003 3.728-5.605c1.603-1.603 3.508-2.87 5.606-3.728s4.345-1.29 6.611-1.271c2.266 0.020 4.506 0.491 6.588 1.385s3.965 2.195 5.54 3.825zM329.26 886.737l-119.467-119.467c-1.63-1.574-2.93-3.457-3.825-5.539s-1.365-4.322-1.385-6.588c-0.020-2.266 0.412-4.513 1.27-6.611s2.125-4.003 3.728-5.605c1.603-1.603 3.508-2.87 5.606-3.728s4.345-1.29 6.611-1.271c2.266 0.020 4.506 0.491 6.588 1.385s3.965 2.195 5.54 3.825l119.467 119.467c1.63 1.574 2.93 3.458 3.825 5.54s1.365 4.322 1.385 6.588c0.020 2.266-0.412 4.514-1.27 6.611s-2.126 4.003-3.728 5.605c-1.603 1.603-3.508 2.87-5.606 3.728s-4.345 1.29-6.611 1.27c-2.266-0.020-4.506-0.49-6.588-1.385s-3.965-2.194-5.54-3.825z" />
<glyph unicode="&#xe924;" glyph-name="37" d="M512.012 960c-207.149 0-393.932-124.813-473.067-315.96-79.135-191.438-35.495-411.682 111.139-558.018 146.633-146.342 366.583-190.278 558.019-111.142 191.149 79.136 315.962 265.92 315.962 473.068-0.288 282.792-229.261 511.762-512.052 512.052zM512.012 28.998c-169.327 0-322.361 102.118-386.949 258.643-64.879 156.524-29.094 336.615 90.773 456.482s299.958 155.652 456.484 90.772c156.525-64.879 258.643-217.622 258.643-386.948-0.288-231.295-187.654-418.661-418.952-418.949zM558.6 467.147v260.1c0 25.603-20.947 46.55-46.55 46.55s-46.55-20.948-46.55-46.55v-279.302c0-12.219 4.946-24.148 13.674-32.876l139.651-139.651c18.329-17.747 47.421-17.453 65.169 0.582 18.042 18.042 18.33 47.132 0.582 65.171l-125.976 125.976z" />
<glyph unicode="&#xe925;" glyph-name="38" d="M378.9 218.936c0-14.136 11.462-25.6 25.6-25.6h323.707c14.136 0 25.6 11.464 25.6 25.6 0 14.141-11.464 25.6-25.6 25.6h-323.707c-14.138 0-25.6-11.459-25.6-25.6zM899.697 218.936c0-14.141 11.459-25.6 25.6-25.6h68.716c14.141 0 25.6 11.459 25.6 25.6v208.645c0 6.646-2.58 13.030-7.204 17.802l-172.093 177.82c-4.823 4.983-11.464 7.797-18.396 7.797h-140.82c-14.136 0-25.6-11.462-25.6-25.6v-384.57c0-14.141 11.464-25.6 25.6-25.6 14.141 0 25.6 11.459 25.6 25.6v358.97h104.371l157.343-162.577v-172.687h-43.116c-14.141 0-25.6-11.464-25.6-25.6zM655.498 427.587c0-14.141 11.464-25.6 25.6-25.6h312.929c14.136 0 25.6 11.459 25.6 25.6 0 14.136-11.464 25.598-25.6 25.598h-312.929c-14.136 0-25.6-11.462-25.6-25.598zM222.705 140.58c46.673-46.679 122.343-46.679 169.016 0 46.671 46.674 46.671 122.348 0 169.021-46.673 46.674-122.343 46.674-169.016 0s-46.673-122.348-0.001-169.021c0 0 0.001 0 0.001 0zM355.516 176.783c-26.678-26.68-69.928-26.68-96.607 0v0c-26.679 26.675-26.679 69.934 0 96.614v0c26.679 26.68 69.929 26.68 96.607 0s26.677-69.939 0-96.614zM746.199 140.58c46.674-46.679 122.342-46.679 169.016 0v0c46.674 46.674 46.674 122.348 0 169.021s-122.342 46.674-169.016 0c-46.669-46.674-46.669-122.348 0-169.021zM879.012 176.783c-26.68-26.68-69.929-26.68-96.609 0-26.675 26.675-26.675 69.934 0 96.614 26.68 26.68 69.929 26.68 96.609 0v0c26.68-26.68 26.68-69.939 0-96.614v0zM99.1 219.259c0-14.136 11.461-25.6 25.6-25.6h84.738c14.138 0 25.6 11.464 25.6 25.6 0 14.141-11.462 25.6-25.6 25.6h-59.138v519.968c0 14.139-11.462 25.6-25.6 25.6s-25.6-11.461-25.6-25.6v-545.568zM681.907 579.547c14.141 0 25.6 11.462 25.6 25.6v159.686c0 14.138-11.459 25.6-25.6 25.6h-557.207c-14.139 0-25.6-11.462-25.6-25.6s11.461-25.6 25.6-25.6h531.607v-134.086c0-14.138 11.464-25.6 25.6-25.6zM99.1 764.834c0-14.138 11.461-25.6 25.6-25.6h208.152c14.138 0 25.6 11.462 25.6 25.6s-11.462 25.6-25.6 25.6h-208.152c-14.139 0-25.6-11.462-25.6-25.6zM46.409 644.806c0-14.138 11.461-25.6 25.6-25.6h260.862c14.139 0 25.6 11.462 25.6 25.6s-11.461 25.6-25.6 25.6h-260.862c-14.138 0-25.6-11.462-25.6-25.6zM4.4 524.778c0-14.138 11.462-25.6 25.6-25.6h280.866c14.138 0 25.6 11.462 25.6 25.6s-11.462 25.6-25.6 25.6h-280.866c-14.139 0-25.6-11.461-25.6-25.6z" />
<glyph unicode="&#xe926;" glyph-name="39" horiz-adv-x="1475" d="M344.644 960c-190.077 0-344.644-154.61-344.644-344.644 0-173.498 128.822-317.465 295.924-341.193-13.378-97.184-50.483-189.653-108.458-269.84-11.275-15.651-10.853-36.854 1.178-51.999 11.804-14.903 32.316-20.552 50.318-12.958 273.543 114.176 450.324 379.56 450.324 675.99 0 190.034-154.567 344.644-344.642 344.644zM1125.833 960c-190.077 0-344.642-154.61-344.642-344.644 0-173.498 128.821-317.465 295.924-341.193-13.378-97.184-50.485-189.653-108.46-269.84-11.274-15.651-10.852-36.854 1.178-51.999 11.805-14.903 32.317-20.552 50.319-12.958 273.543 114.176 450.324 379.56 450.324 675.99 0 190.034-154.567 344.644-344.644 344.644z" />
<glyph unicode="&#xe927;" glyph-name="40" horiz-adv-x="914" d="M173.477 937.422c-89.022 52.956-161.196 9.574-161.196-96.819v-785.131c0-106.5 72.174-149.822 161.196-96.918l661.734 393.556c89.051 52.974 89.051 138.8 0 191.762l-661.734 393.55z" />
<glyph unicode="&#xe928;" glyph-name="41" horiz-adv-x="1365" d="M1184.469 957.333l-695.656-645.365-294.199 313.958-194.615-182.364 475.291-507.22 890.042 824.938-180.864 196.052z" />
<glyph unicode="&#xe929;" glyph-name="42" horiz-adv-x="602" d="M517.168 960l85.185-85.185-425.882-425.883 425.936-425.934-85.185-85.191-511.168 511.080 511.114 511.113z" />
<glyph unicode="&#xe92a;" glyph-name="43" horiz-adv-x="602" d="M85.185 960l-85.186-85.185 425.882-425.883-425.937-425.934 85.186-85.191 511.168 511.080-511.113 511.113z" />
<glyph unicode="&#xe92c;" glyph-name="45" d="M216.381 685.714h-100.571c-33.524 0-57.904 27.429-57.904 57.905v103.619c-3.048 30.476 21.333 57.905 54.857 57.905h100.571c33.524 0 57.904-27.429 57.904-57.905v-103.619c3.048-30.476-24.381-57.905-54.857-57.905zM213.334 847.238l-100.571-3.047 3.047-100.571 97.524 3.047v100.571zM216.381 746.666c-3.047 0-3.047 0 0 0zM969.143 786.286c0 18.286-12.193 30.476-30.479 30.476h-548.569c-18.286 0-30.476-12.191-30.476-30.476s12.19-30.476 30.476-30.476h548.569c18.286 0 30.479 15.239 30.479 30.476zM216.381 338.286h-100.571c-33.524 0-57.904 27.429-57.904 57.905v100.571c0 33.524 27.429 57.904 57.904 57.904h100.571c33.524 0 57.905-27.429 57.905-57.904v-100.571c0-30.476-27.429-57.905-57.905-57.905zM213.334 499.809l-100.571-3.047 3.047-100.571 97.524 3.047v100.571zM216.381 399.238c-3.047 0-3.047 0 0 0zM969.143 438.857c0 18.286-12.193 30.476-30.479 30.476h-548.569c-18.286 0-30.476-12.191-30.476-30.476s12.19-30.476 30.476-30.476h548.569c18.286 0 30.479 15.239 30.479 30.476zM216.381-9.143h-100.571c-36.571 0-60.952 27.429-60.952 57.907v103.614c0 33.529 27.429 57.907 57.905 57.907h100.571c33.524 0 57.904-27.429 57.904-57.907v-103.614c3.048-30.479-24.381-57.907-54.857-57.907zM213.334 152.379l-100.571-3.043 3.047-100.571 97.524 3.043v100.571zM216.381 51.807c-3.047 0-3.047 0 0 0zM969.143 91.429c0 18.286-12.193 30.479-30.479 30.479h-548.569c-18.286 0-30.476-12.193-30.476-30.479s12.19-30.479 30.476-30.479h548.569c18.286 0 30.479 15.243 30.479 30.479z" />
<glyph unicode="&#xe92d;" glyph-name="46" horiz-adv-x="1126" d="M0-64h204.8v614.4h-204.8v-614.4zM1126.4 499.2c0 56.32-46.080 102.4-102.4 102.4h-322.56l48.64 232.96c0 5.12 2.56 10.24 2.56 15.36 0 20.48-7.68 40.96-23.040 53.76l-56.32 56.32-335.36-337.92c-20.48-17.92-30.72-43.52-30.72-71.68v-512c0-56.32 46.080-102.4 102.4-102.4h460.8c43.52 0 79.36 25.6 94.72 61.44l153.6 360.96c5.12 12.8 7.68 25.6 7.68 38.4v102.4z" />
<glyph unicode="&#xe92e;" glyph-name="47" horiz-adv-x="1126" d="M0 960h204.8v-614.4h-204.8v614.4zM1126.4 396.8c0-56.32-46.080-102.4-102.4-102.4h-322.56l48.64-232.96c0-5.12 2.56-10.24 2.56-15.36 0-20.48-7.68-40.96-23.040-53.76l-56.32-56.32-335.36 337.92c-20.48 17.92-30.72 43.52-30.72 71.68v512c0 56.32 46.080 102.4 102.4 102.4h460.8c43.52 0 79.36-25.6 94.72-61.44l153.6-360.96c5.12-12.8 7.68-25.6 7.68-38.4v-102.4z" />
<glyph unicode="&#xe92f;" glyph-name="48" d="M989.932 725.433c-20.442 21.415-48.668 34.068-80.791 34.068h-161.582v1.947c0 24.335-9.733 47.696-26.281 63.27-16.548 16.548-38.935 26.281-63.27 26.281h-292.014c-25.308 0-47.695-9.734-64.243-26.281s-26.281-38.935-26.281-63.27v-1.947h-160.61c-32.122 0-60.35-12.654-80.791-34.068-20.441-20.441-34.068-49.642-34.068-80.79v-484.746c0-32.123 12.654-60.349 34.068-80.791 20.441-20.442 49.642-34.068 80.791-34.068h794.281c32.123 0 60.349 12.654 80.791 34.068 20.442 20.442 34.068 49.644 34.068 80.791v484.746c0 32.12-12.654 60.349-34.068 80.79zM973.384 159.898h-0.973c0-17.521-6.815-33.096-18.493-44.777-11.681-11.679-27.256-18.493-44.777-18.493h-794.281c-17.521 0-33.095 6.815-44.776 18.493-11.681 11.681-18.494 27.256-18.494 44.777v484.746c0 17.521 6.814 33.093 18.494 44.774s27.255 18.494 44.776 18.494h187.863c14.6 0 26.281 11.681 26.281 26.281v28.228c0 10.707 3.894 20.441 10.708 27.255 6.812 6.814 16.548 10.707 27.254 10.707h291.041c10.708 0 20.442-3.894 27.256-10.707 6.812-6.814 10.706-16.548 10.706-27.255v-28.228c0-14.601 11.681-26.281 26.281-26.281h187.863c17.521 0 33.096-6.813 44.777-18.494s18.493-27.254 18.493-44.774v-484.746zM511.951 641.7c-66.189 0-126.538-27.254-169.367-70.083-43.804-43.804-70.085-103.181-70.085-169.37 0-66.191 27.256-126.541 70.085-169.37 43.802-43.802 103.178-70.083 169.367-70.083 66.191 0 126.541 27.254 169.37 70.083 43.802 43.804 70.085 103.178 70.085 169.37 0 66.189-27.256 126.541-70.085 169.37s-103.178 70.083-169.37 70.083zM644.332 268.895c-34.068-33.096-80.788-54.51-132.38-54.51-51.589 0-98.312 21.414-132.38 54.51-34.068 34.068-54.508 80.791-54.508 132.38s21.414 98.312 54.508 132.38c34.068 34.068 80.791 54.51 132.38 54.51 51.592 0 98.312-21.414 132.38-54.51 34.068-34.068 54.51-80.791 54.51-132.38 0.973-51.589-20.442-98.312-54.51-132.38zM858.496 547.308c26.342 0 47.695 21.356 47.695 47.698 0 26.34-21.353 47.695-47.695 47.695s-47.695-21.356-47.695-47.695c0-26.342 21.353-47.698 47.695-47.698z" />
<glyph unicode="&#xe930;" glyph-name="49" horiz-adv-x="1355" d="M121.824 18.824c-76.14 82.824-121.824 173.176-121.824 323.765 0 263.529 190.35 496.941 456.84 617.412l68.527-97.882c-251.262-135.529-304.56-308.706-319.788-421.647 38.070 22.588 91.368 30.118 144.666 22.588 137.053-15.059 243.649-120.471 243.649-263.529 0-67.765-30.455-135.529-76.14-188.235-53.299-52.706-114.209-75.294-190.35-75.294-83.754 0-159.895 37.647-205.579 82.824zM883.224 18.824c-76.137 82.824-121.823 173.176-121.823 323.765 0 263.529 190.35 496.941 456.84 617.412l68.527-97.882c-251.262-135.529-304.559-308.706-319.789-421.647 38.072 22.588 91.371 30.118 144.667 22.588 137.053-15.059 243.649-120.471 243.649-263.529 0-67.765-30.455-135.529-76.14-188.235-45.682-52.706-114.209-75.294-190.35-75.294-83.754 0-159.895 37.647-205.58 82.824z" />
<glyph unicode="&#xe931;" glyph-name="50" horiz-adv-x="819" d="M54.667-11.066c0 14.138 11.462 25.6 25.6 25.6h645.121c14.138 0 25.6-11.462 25.6-25.6s-11.462-25.6-25.6-25.6h-645.121c-14.138 0-25.6 11.462-25.6 25.6zM402.828 680.133c-65.038 0-117.761-52.723-117.761-117.759 0-65.038 52.723-117.76 117.761-117.76 65.034 0 117.76 52.722 117.76 117.76 0 65.036-52.726 117.759-117.76 117.759zM233.867 562.374c0 93.313 75.646 168.959 168.961 168.959 93.314 0 168.96-75.646 168.96-168.959s-75.646-168.96-168.96-168.96c-93.315 0-168.961 75.646-168.961 168.96zM402.668 895.133c-88.265 0-172.914-35.063-235.326-97.475s-97.475-147.061-97.475-235.325c0-152.064 84.783-289.526 172.918-390.881 43.754-50.319 87.575-90.86 120.462-118.811 16.343-13.892 29.938-24.634 39.421-31.887 9.482 7.253 23.078 17.995 39.421 31.887 32.887 27.952 76.704 68.492 120.46 118.811 88.136 101.356 172.919 238.817 172.919 390.881 0 88.264-35.065 172.913-97.475 235.325-62.413 62.412-147.063 97.475-235.325 97.475zM402.668-11.107l14.681-20.972c-8.817-6.171-20.548-6.171-29.361 0l14.681 20.972zM131.138 833.862c72.014 72.014 169.686 112.471 271.53 112.471s199.513-40.457 271.527-112.471c72.015-72.014 112.473-169.686 112.473-271.529 0-170.496-94.416-319.754-185.484-424.479-45.844-52.722-91.624-95.061-125.938-124.225-17.172-14.599-31.522-25.938-41.632-33.666-5.059-3.864-9.059-6.83-11.827-8.851-1.386-1.010-2.461-1.785-3.209-2.318l-0.87-0.621-0.246-0.171-0.072-0.055c-0.010-0.003-0.041-0.027-14.722 20.944-14.681-20.972-14.674-20.978-14.681-20.972l-0.116 0.082-0.246 0.171-0.87 0.621c-0.748 0.532-1.823 1.307-3.209 2.318-2.768 2.021-6.769 4.987-11.824 8.851-10.114 7.728-24.46 19.067-41.635 33.666-34.313 29.164-80.093 71.503-125.938 124.225-91.065 104.724-185.482 253.983-185.482 424.479 0 101.844 40.457 199.515 112.471 271.529z" />
<glyph unicode="&#xe932;" glyph-name="51" horiz-adv-x="1103" d="M527.25 937.347c9.921 6.615 22.847 6.615 32.768 0l496.246-330.831c8.22-5.478 13.154-14.701 13.154-24.578v-537.599c0-18.802-7.471-36.832-20.764-50.129-13.296-13.296-31.327-20.764-50.129-20.764h-909.785c-18.801 0-36.833 7.467-50.128 20.764s-20.764 31.327-20.764 50.129v537.599c0 9.876 4.936 19.099 13.153 24.578l496.248 330.831zM76.925 566.13v-521.791c0-3.135 1.245-6.14 3.461-8.357 2.216-2.213 5.221-3.458 8.355-3.458h909.785c3.135 0 6.14 1.245 8.353 3.458 2.217 2.217 3.462 5.222 3.462 8.357v521.791l-466.708 311.138-466.708-311.138zM23.336 599.071c9.471 13.283 27.916 16.374 41.199 6.903l398.321-283.989h161.556l398.32 283.989c13.284 9.47 31.728 6.38 41.2-6.903 9.468-13.283 6.376-31.729-6.904-41.2l-406.020-289.477c-5.002-3.568-11-5.486-17.144-5.486h-180.46c-6.148 0-12.142 1.918-17.148 5.486l-406.016 289.477c-13.283 9.471-16.374 27.917-6.904 41.2z" />
<glyph unicode="&#xe933;" glyph-name="52" d="M259.576 884.37c-50.753-6.516-97.398-31.293-131.212-69.701-33.841-38.439-52.51-87.894-52.513-139.107 0-172.001 68.327-336.956 189.951-458.581 121.622-121.625 286.581-189.952 458.582-189.952zM259.576 884.37c2.398 0.275 4.822-0.228 6.913-1.437 2.111-1.22 3.767-3.094 4.72-5.338l100.042-233.431c0.739-1.724 1.040-3.605 0.877-5.474s-0.787-3.669-1.814-5.238l-82.728-126.404c-0.016-0.027-0.032-0.049-0.048-0.072-6.457-9.781-10.274-21.064-11.080-32.753-0.808-11.719 1.437-23.446 6.518-34.039l25.649 12.299-25.554-12.497c44.106-90.173 117.199-162.934 207.569-206.628l0.201-0.095c10.657-5.048 22.445-7.236 34.202-6.349 11.73 0.887 23.029 4.809 32.787 11.374 0.023 0.019 0.049 0.034 0.072 0.049l124.492 83.012c1.574 1.051 3.387 1.691 5.272 1.866 1.885 0.171 3.781-0.129 5.522-0.872l233.229-99.954c2.245-0.956 4.119-2.613 5.336-4.722 1.21-2.090 1.714-4.513 1.437-6.91-6.512-50.756-31.293-97.401-69.7-131.216-38.438-33.838-87.893-52.508-139.105-52.512zM334.236 464.854c38.494-78.628 102.238-142.078 181.037-180.216 1.71-0.796 3.595-1.138 5.477-0.994 1.908 0.144 3.747 0.781 5.332 1.851l0.129 0.087 124.621 83.099c9.451 6.299 20.321 10.145 31.63 11.184s22.699-0.759 33.136-5.234l233.059-99.882c0.015-0.008 0.030-0.015 0.049-0.023 13.574-5.776 24.906-15.808 32.294-28.577 7.396-12.789 10.437-27.633 8.662-42.299l-0.027-0.19c-8.245-64.523-39.727-123.832-88.553-166.817s-111.646-66.7-176.697-66.704c-187.089 0-366.517 74.323-498.809 206.613-132.292 132.293-206.613 311.721-206.613 498.81 0.003 65.051 23.718 127.872 66.703 176.697s102.293 80.308 166.819 88.555l0.188 0.024c14.664 1.775 29.509-1.265 42.296-8.66 12.773-7.387 22.802-18.721 28.581-32.296 0.006-0.015 0.013-0.030 0.019-0.046l99.972-233.264c4.434-10.347 6.239-21.63 5.26-32.844-0.982-11.214-4.722-22.012-10.889-31.431l-82.895-126.662c-1.052-1.589-1.675-3.425-1.806-5.329-0.129-1.874 0.224-3.751 1.024-5.454z" />
<glyph unicode="&#xe934;" glyph-name="53" horiz-adv-x="1365" d="M1337.6 369.777h-1052.989l266.033-280.817-104.778-110.293-445.867 469.333 445.867 469.333 104.778-110.293-266.033-280.817h1052.989v-156.445z" />
</font>
</defs>
</svg>
